<?xml version="1.0" standalone="no"?><!DOCTYPE svg PUBLIC "-//W3C//DTD SVG 1.1//EN" "http://www.w3.org/Graphics/SVG/1.1/DTD/svg11.dtd"><svg width="1238" height="1000" version="1.1" xmlns="http://www.w3.org/2000/svg" xmlns:xlink="http://www.w3.org/1999/xlink"><defs xmlns="http://www.w3.org/1999/xhtml"><style type="text/css"><![CDATA[
html, body, div, span, applet, object, iframe, h1, h2, h3, h4, h5, h6, p, blockquote, pre, a, abbr, acronym, address, big, cite, code, del, dfn, em, img, ins, kbd, q, s, samp, small, strike, strong, sub, sup, tt, var, b, u, i, center, dl, dt, dd, ol, ul, li, fieldset, form, label, legend, table, caption, tbody, tfoot, thead, tr, th, td, article, aside, canvas, details, embed, figure, figcaption, footer, header, hgroup, menu, nav, output, ruby, section, summary, time, mark, audio, video { margin: 0px; padding: 0px; border: 0px; font-style: inherit; font-variant: inherit; font-weight: inherit; font-stretch: inherit; font-size: inherit; line-height: inherit; font-family: inherit; vertical-align: baseline; }
article, aside, details, figcaption, figure, footer, header, hgroup, menu, nav, section { display: block; }
body { line-height: 1; }
ol, ul { list-style: none; }
blockquote, q { quotes: none; }
blockquote::before, blockquote::after, q::before, q::after { content: none; }
table { border-collapse: collapse; border-spacing: 0px; }
html { box-sizing: border-box; }
*, ::before, ::after { box-sizing: inherit; }
body { margin: 0px 20px; font-family: Sanchez; background: rgb(34, 34, 34); }
body em { font-style: italic; }
body b { font-weight: bold; }
.corner-left { position: absolute; top: 0px; left: 0px; width: 0px; height: 0px; border-style: solid; border-width: 0px; border-color: rgb(34, 34, 34) transparent transparent; }
.corner-right { position: absolute; top: 0px; right: 0px; width: 0px; height: 0px; border-style: solid; border-width: 0px; border-color: rgb(34, 34, 34) transparent transparent; }
.ribbon { position: fixed; top: 0px; width: 7px; height: 100%; background-size: 7px 31px; }
.ribbon.right { right: 20px; background-image: url(http://localhost:8001/img/ribbon-right.png); }
.ribbon.left { left: 20px; background-image: url(http://localhost:8001/img/ribbon-left.png); }
#wrapper { position: relative; display: block; margin: 0px auto; }
#sidebar { position: fixed; top: 0px; margin: 15px 0px 0px 35px; display: block; height: 100%; }
#sidebar .menu-items { text-align: right; font-size: 25px; color: rgb(203, 215, 227); font-family: 'Arial Black'; }
#sidebar .menu-items div { color: white; opacity: 0.7; transition: 1s; margin-top: 25px; cursor: pointer; }
#sidebar .menu-items div:hover { color: white; }
#sidebar .menu-items div:first-child { opacity: 1; color: white; }
.paint { position: absolute; height: 100%; width: 200px; top: 0px; left: -50px; opacity: 0.5; background-image: url(http://localhost:8001/img/grudge-paint.png); background-size: 100% 100%; }
#content { position: relative; padding: 60px 15%; color: white; display: block; width: 100%; height: 3000px; background-size: 100%; }
#content svg { position: absolute; top: 0px; left: 0px; z-index: -1; }
#content .logo { position: relative; width: 100%; height: auto; max-width: 500px; margin: 30px auto 40px; display: block; }
#content .logo img { width: 100%; }
#content .ornament, #content .ornament2 { position: absolute; top: -47%; right: 2.75%; width: 45%; zoom: 0.65; overflow: hidden; }
#content .ornament img, #content .ornament2 img { width: 100%; }
#content .ornament { opacity: 1; }
#content .ornament2 { opacity: 0.2; }
#content .desc { width: 80%; font-size: 25px; line-height: 1.2; text-align: center; display: block; font-weight: bold; margin: 0px auto; padding-bottom: 50px; border-bottom-width: 3px; border-bottom-style: dashed; border-bottom-color: white; text-shadow: rgba(0, 0, 0, 0.2) 0px 0px 5px; }
#content .desc span { color: rgb(248, 235, 192); font-weight: bold; }
#content .black-box { padding: 20px 40px; display: block; margin: 40px auto 0px; width: 70%; height: 175px; border-radius: 20px; background: rgba(0, 0, 0, 0.298039); }]]></style></defs><path d="M-31,-191L254,-172L576,-174Z" fill="#0e4a6c" stroke="#0e4a6c" stroke-width="1.51"/><path d="M569,1147L280,1162L871,1187Z" fill="#6fb397" stroke="#6fb397" stroke-width="1.51"/><path d="M280,1162L81,1195L871,1187Z" fill="#65a993" stroke="#65a993" stroke-width="1.51"/><path d="M-31,-191L576,-174L1089,-194Z" fill="#0e496b" stroke="#0e496b" stroke-width="1.51"/><path d="M576,-174L839,-140L1089,-194Z" fill="#114b6d" stroke="#114b6d" stroke-width="1.51"/><path d="M1095,1116L871,1187L1244,1138Z" fill="#88c39d" stroke="#88c39d" stroke-width="1.51"/><path d="M1325,965L1272,1096L1368,1123Z" fill="#8ec499" stroke="#8ec499" stroke-width="1.51"/><path d="M1329,323L1318,498L1385,498Z" fill="#599188" stroke="#599188" stroke-width="1.51"/><path d="M1321,189L1381,203L1393,20Z" fill="#3d707c" stroke="#3d707c" stroke-width="1.51"/><path d="M1265,73L1321,189L1393,20Z" fill="#376b79" stroke="#376b79" stroke-width="1.51"/><path d="M1391,-123L1384,-70L1393,20Z" fill="#265972" stroke="#265972" stroke-width="1.51"/><path d="M1329,323L1385,498L1400,500Z" fill="#5a9189" stroke="#5a9189" stroke-width="1.51"/><path d="M1381,203L1329,323L1400,500Z" fill="#508784" stroke="#508784" stroke-width="1.51"/><path d="M1393,20L1381,203L1400,500Z" fill="#487d81" stroke="#487d81" stroke-width="1.51"/><path d="M1385,498L1318,498L1401,624Z" fill="#629b8c" stroke="#629b8c" stroke-width="1.51"/><path d="M1318,498L1274,547L1401,624Z" fill="#629d8d" stroke="#629d8d" stroke-width="1.51"/><path d="M1400,500L1385,498L1401,624Z" fill="#639d8c" stroke="#639d8c" stroke-width="1.51"/><path d="M1289,686L1356,794L1401,624Z" fill="#70a990" stroke="#70a990" stroke-width="1.51"/><path d="M1400,500L1401,624L1408,836Z" fill="#6ea68f" stroke="#6ea68f" stroke-width="1.51"/><path d="M1401,624L1356,794L1408,836Z" fill="#76ae92" stroke="#76ae92" stroke-width="1.51"/><path d="M1408,836L1313,917L1418,1004Z" fill="#85ba95" stroke="#85ba95" stroke-width="1.51"/><path d="M1313,917L1325,965L1418,1004Z" fill="#87bd96" stroke="#87bd96" stroke-width="1.51"/><path d="M1325,965L1368,1123L1418,1004Z" fill="#8dc298" stroke="#8dc298" stroke-width="1.51"/><path d="M1400,500L1408,836L1418,1004Z" fill="#7ab192" stroke="#7ab192" stroke-width="1.51"/><path d="M1265,73L1298,181L1321,189Z" fill="#3c717c" stroke="#3c717c" stroke-width="1.51"/><path d="M1356,794L1289,844L1408,836Z" fill="#7cb394" stroke="#7cb394" stroke-width="1.51"/><path d="M1289,844L1313,917L1408,836Z" fill="#7eb695" stroke="#7eb695" stroke-width="1.51"/><path d="M1272,260L1329,323L1381,203Z" fill="#487e81" stroke="#487e81" stroke-width="1.51"/><path d="M1321,189L1272,260L1381,203Z" fill="#447980" stroke="#447980" stroke-width="1.51"/><path d="M1384,-70L1239,-51L1393,20Z" fill="#295c74" stroke="#295c74" stroke-width="1.51"/><path d="M1274,547L1289,686L1401,624Z" fill="#68a28e" stroke="#68a28e" stroke-width="1.51"/><path d="M1289,-172L1384,-70L1391,-123Z" fill="#1c526f" stroke="#1c526f" stroke-width="1.51"/><path d="M1239,-51L1265,73L1393,20Z" fill="#2e6276" stroke="#2e6276" stroke-width="1.51"/><path d="M1289,-172L1239,-51L1384,-70Z" fill="#1f5571" stroke="#1f5571" stroke-width="1.51"/><path d="M1230,334L1318,498L1329,323Z" fill="#538b87" stroke="#538b87" stroke-width="1.51"/><path d="M1289,686L1246,713L1356,794Z" fill="#71ab91" stroke="#71ab91" stroke-width="1.51"/><path d="M1272,1096L1244,1138L1368,1123Z" fill="#90c69a" stroke="#90c69a" stroke-width="1.51"/><path d="M1246,713L1289,844L1356,794Z" fill="#76af93" stroke="#76af93" stroke-width="1.51"/><path d="M1246,713L1203,770L1289,844Z" fill="#74ae93" stroke="#74ae93" stroke-width="1.51"/><path d="M1230,334L1155,491L1318,498Z" fill="#569089" stroke="#569089" stroke-width="1.51"/><path d="M1298,181L1272,260L1321,189Z" fill="#43787f" stroke="#43787f" stroke-width="1.51"/><path d="M1197,1105L1272,1096L1325,965Z" fill="#8ac299" stroke="#8ac299" stroke-width="1.51"/><path d="M1272,260L1230,334L1329,323Z" fill="#4b8284" stroke="#4b8284" stroke-width="1.51"/><path d="M997,1120L871,1187L1095,1116Z" fill="#84c19d" stroke="#84c19d" stroke-width="1.51"/><path d="M1313,917L1135,906L1325,965Z" fill="#81b996" stroke="#81b996" stroke-width="1.51"/><path d="M1135,906L1197,1105L1325,965Z" fill="#84bd98" stroke="#84bd98" stroke-width="1.51"/><path d="M1274,547L1167,630L1289,686Z" fill="#65a28f" stroke="#65a28f" stroke-width="1.51"/><path d="M1192,-101L1239,-51L1289,-172Z" fill="#1d5370" stroke="#1d5370" stroke-width="1.51"/><path d="M1155,491L1274,547L1318,498Z" fill="#5c988b" stroke="#5c988b" stroke-width="1.51"/><path d="M1289,844L1135,906L1313,917Z" fill="#7db696" stroke="#7db696" stroke-width="1.51"/><path d="M1239,-51L1176,13L1265,73Z" fill="#2d6177" stroke="#2d6177" stroke-width="1.51"/><path d="M1155,491L1187,552L1274,547Z" fill="#5c998d" stroke="#5c998d" stroke-width="1.51"/><path d="M1187,552L1167,630L1274,547Z" fill="#609d8e" stroke="#609d8e" stroke-width="1.51"/><path d="M1164,837L1135,906L1289,844Z" fill="#79b396" stroke="#79b396" stroke-width="1.51"/><path d="M1167,630L1246,713L1289,686Z" fill="#6aa591" stroke="#6aa591" stroke-width="1.51"/><path d="M1265,73L1135,192L1298,181Z" fill="#3c717c" stroke="#3c717c" stroke-width="1.51"/><path d="M1135,192L1184,240L1298,181Z" fill="#41777f" stroke="#41777f" stroke-width="1.51"/><path d="M1184,240L1272,260L1298,181Z" fill="#447a80" stroke="#447a80" stroke-width="1.51"/><path d="M1203,770L1164,837L1289,844Z" fill="#76b095" stroke="#76b095" stroke-width="1.51"/><path d="M1089,-194L1192,-101L1289,-172Z" fill="#154d6e" stroke="#154d6e" stroke-width="1.51"/><path d="M1135,906L1133,1096L1197,1105Z" fill="#85be9a" stroke="#85be9a" stroke-width="1.51"/><path d="M1203,308L1230,334L1272,260Z" fill="#4a8284" stroke="#4a8284" stroke-width="1.51"/><path d="M1197,1105L1244,1138L1272,1096Z" fill="#8ec49b" stroke="#8ec49b" stroke-width="1.51"/><path d="M1184,240L1203,308L1272,260Z" fill="#477e82" stroke="#477e82" stroke-width="1.51"/><path d="M1197,1105L1095,1116L1244,1138Z" fill="#8bc49b" stroke="#8bc49b" stroke-width="1.51"/><path d="M1176,13L1135,192L1265,73Z" fill="#356b7a" stroke="#356b7a" stroke-width="1.51"/><path d="M1093,347L1155,491L1230,334Z" fill="#4f8a87" stroke="#4f8a87" stroke-width="1.51"/><path d="M1162,-42L1176,13L1239,-51Z" fill="#285c74" stroke="#285c74" stroke-width="1.51"/><path d="M1167,630L1203,770L1246,713Z" fill="#6ca792" stroke="#6ca792" stroke-width="1.51"/><path d="M1133,1096L1095,1116L1197,1105Z" fill="#89c29b" stroke="#89c29b" stroke-width="1.51"/><path d="M1203,308L1093,347L1230,334Z" fill="#4b8485" stroke="#4b8485" stroke-width="1.51"/><path d="M1192,-101L1162,-42L1239,-51Z" fill="#235872" stroke="#235872" stroke-width="1.51"/><path d="M1034,1063L1133,1096L1135,906Z" fill="#81bc9a" stroke="#81bc9a" stroke-width="1.51"/><path d="M1061,165L1135,192L1176,13Z" fill="#376d7b" stroke="#376d7b" stroke-width="1.51"/><path d="M1030,48L1061,165L1176,13Z" fill="#32687a" stroke="#32687a" stroke-width="1.51"/><path d="M1167,630L1057,764L1203,770Z" fill="#6ba892" stroke="#6ba892" stroke-width="1.51"/><path d="M1057,764L1164,837L1203,770Z" fill="#71ad94" stroke="#71ad94" stroke-width="1.51"/><path d="M1184,240L1078,298L1203,308Z" fill="#477f83" stroke="#477f83" stroke-width="1.51"/><path d="M1078,298L1093,347L1203,308Z" fill="#498384" stroke="#498384" stroke-width="1.51"/><path d="M1023,939L1034,1063L1135,906Z" fill="#7cb899" stroke="#7cb899" stroke-width="1.51"/><path d="M1093,347L1042,444L1155,491Z" fill="#518e89" stroke="#518e89" stroke-width="1.51"/><path d="M1048,-57L1162,-42L1192,-101Z" fill="#225872" stroke="#225872" stroke-width="1.51"/><path d="M1089,-194L1048,-57L1192,-101Z" fill="#1b5170" stroke="#1b5170" stroke-width="1.51"/><path d="M1039,632L1057,764L1167,630Z" fill="#65a491" stroke="#65a491" stroke-width="1.51"/><path d="M1027,568L1167,630L1187,552Z" fill="#5e9d8e" stroke="#5e9d8e" stroke-width="1.51"/><path d="M1155,491L1027,568L1187,552Z" fill="#5a988d" stroke="#5a988d" stroke-width="1.51"/><path d="M1135,192L1078,298L1184,240Z" fill="#437b81" stroke="#437b81" stroke-width="1.51"/><path d="M622,1141L569,1147L871,1187Z" fill="#75b898" stroke="#75b898" stroke-width="1.51"/><path d="M1027,568L1039,632L1167,630Z" fill="#5f9f90" stroke="#5f9f90" stroke-width="1.51"/><path d="M1162,-42L1048,-57L1176,13Z" fill="#275c74" stroke="#275c74" stroke-width="1.51"/><path d="M1048,-57L1030,48L1176,13Z" fill="#2a6076" stroke="#2a6076" stroke-width="1.51"/><path d="M1040,859L1135,906L1164,837Z" fill="#76b296" stroke="#76b296" stroke-width="1.51"/><path d="M1057,764L1040,859L1164,837Z" fill="#72ae95" stroke="#72ae95" stroke-width="1.51"/><path d="M1042,444L1027,568L1155,491Z" fill="#56948c" stroke="#56948c" stroke-width="1.51"/><path d="M1034,1063L1095,1116L1133,1096Z" fill="#86c19c" stroke="#86c19c" stroke-width="1.51"/><path d="M1040,859L1023,939L1135,906Z" fill="#77b398" stroke="#77b398" stroke-width="1.51"/><path d="M1061,165L1078,298L1135,192Z" fill="#3f7880" stroke="#3f7880" stroke-width="1.51"/><path d="M1061,165L993,295L1078,298Z" fill="#427b82" stroke="#427b82" stroke-width="1.51"/><path d="M839,-140L965,-103L1089,-194Z" fill="#164e6e" stroke="#164e6e" stroke-width="1.51"/><path d="M965,-103L1048,-57L1089,-194Z" fill="#1a5170" stroke="#1a5170" stroke-width="1.51"/><path d="M967,414L1042,444L1093,347Z" fill="#4e8b88" stroke="#4e8b88" stroke-width="1.51"/><path d="M1034,1063L997,1120L1095,1116Z" fill="#84bf9c" stroke="#84bf9c" stroke-width="1.51"/><path d="M955,195L993,295L1061,165Z" fill="#3e7780" stroke="#3e7780" stroke-width="1.51"/><path d="M993,295L967,414L1093,347Z" fill="#498586" stroke="#498586" stroke-width="1.51"/><path d="M1078,298L993,295L1093,347Z" fill="#478284" stroke="#478284" stroke-width="1.51"/><path d="M1023,939L968,996L1034,1063Z" fill="#7cb99a" stroke="#7cb99a" stroke-width="1.51"/><path d="M997,830L1040,859L1057,764Z" fill="#70ad96" stroke="#70ad96" stroke-width="1.51"/><path d="M1039,632L955,762L1057,764Z" fill="#67a693" stroke="#67a693" stroke-width="1.51"/><path d="M1030,48L956,91L1061,165Z" fill="#346a7b" stroke="#346a7b" stroke-width="1.51"/><path d="M940,354L967,414L993,295Z" fill="#488586" stroke="#488586" stroke-width="1.51"/><path d="M968,996L995,1059L1034,1063Z" fill="#7ebb9a" stroke="#7ebb9a" stroke-width="1.51"/><path d="M933,655L955,762L1039,632Z" fill="#62a391" stroke="#62a391" stroke-width="1.51"/><path d="M939,500L1027,568L1042,444Z" fill="#54948c" stroke="#54948c" stroke-width="1.51"/><path d="M965,-103L988,-61L1048,-57Z" fill="#205771" stroke="#205771" stroke-width="1.51"/><path d="M988,-61L1030,48L1048,-57Z" fill="#275d74" stroke="#275d74" stroke-width="1.51"/><path d="M956,91L955,195L1061,165Z" fill="#386f7d" stroke="#386f7d" stroke-width="1.51"/><path d="M576,-174L792,-129L839,-140Z" fill="#154e6e" stroke="#154e6e" stroke-width="1.51"/><path d="M955,762L997,830L1057,764Z" fill="#6cab95" stroke="#6cab95" stroke-width="1.51"/><path d="M997,830L1023,939L1040,859Z" fill="#73b197" stroke="#73b197" stroke-width="1.51"/><path d="M988,-61L909,38L1030,48Z" fill="#2a6076" stroke="#2a6076" stroke-width="1.51"/><path d="M995,1059L997,1120L1034,1063Z" fill="#81be9c" stroke="#81be9c" stroke-width="1.51"/><path d="M1027,568L933,655L1039,632Z" fill="#5d9e90" stroke="#5d9e90" stroke-width="1.51"/><path d="M967,414L939,500L1042,444Z" fill="#508f8a" stroke="#508f8a" stroke-width="1.51"/><path d="M997,830L889,938L1023,939Z" fill="#73b197" stroke="#73b197" stroke-width="1.51"/><path d="M909,38L956,91L1030,48Z" fill="#2f6578" stroke="#2f6578" stroke-width="1.51"/><path d="M939,500L902,632L1027,568Z" fill="#57998e" stroke="#57998e" stroke-width="1.51"/><path d="M902,632L933,655L1027,568Z" fill="#5b9d8f" stroke="#5b9d8f" stroke-width="1.51"/><path d="M889,938L968,996L1023,939Z" fill="#77b598" stroke="#77b598" stroke-width="1.51"/><path d="M955,195L911,223L993,295Z" fill="#3e7880" stroke="#3e7880" stroke-width="1.51"/><path d="M968,996L902,1079L995,1059Z" fill="#7dba9a" stroke="#7dba9a" stroke-width="1.51"/><path d="M955,762L903,758L997,830Z" fill="#6aa994" stroke="#6aa994" stroke-width="1.51"/><path d="M903,758L839,858L997,830Z" fill="#6aaa94" stroke="#6aaa94" stroke-width="1.51"/><path d="M839,858L889,938L997,830Z" fill="#6eae96" stroke="#6eae96" stroke-width="1.51"/><path d="M995,1059L902,1079L997,1120Z" fill="#80bd9c" stroke="#80bd9c" stroke-width="1.51"/><path d="M902,1079L871,1187L997,1120Z" fill="#80be9c" stroke="#80be9c" stroke-width="1.51"/><path d="M911,223L940,354L993,295Z" fill="#437e83" stroke="#437e83" stroke-width="1.51"/><path d="M933,655L903,758L955,762Z" fill="#64a592" stroke="#64a592" stroke-width="1.51"/><path d="M965,-103L849,-13L988,-61Z" fill="#215873" stroke="#215873" stroke-width="1.51"/><path d="M849,-13L909,38L988,-61Z" fill="#265d75" stroke="#265d75" stroke-width="1.51"/><path d="M440,1134L280,1162L569,1147Z" fill="#64aa93" stroke="#64aa93" stroke-width="1.51"/><path d="M911,223L829,333L940,354Z" fill="#427f84" stroke="#427f84" stroke-width="1.51"/><path d="M858,195L955,195L956,91Z" fill="#37707d" stroke="#37707d" stroke-width="1.51"/><path d="M839,-140L849,-13L965,-103Z" fill="#1e5571" stroke="#1e5571" stroke-width="1.51"/><path d="M854,424L939,500L967,414Z" fill="#4e8e89" stroke="#4e8e89" stroke-width="1.51"/><path d="M889,938L902,1079L968,996Z" fill="#78b799" stroke="#78b799" stroke-width="1.51"/><path d="M940,354L854,424L967,414Z" fill="#4a8987" stroke="#4a8987" stroke-width="1.51"/><path d="M837,501L902,632L939,500Z" fill="#53968d" stroke="#53968d" stroke-width="1.51"/><path d="M858,195L911,223L955,195Z" fill="#3b757f" stroke="#3b757f" stroke-width="1.51"/><path d="M909,38L807,144L956,91Z" fill="#31697a" stroke="#31697a" stroke-width="1.51"/><path d="M807,144L858,195L956,91Z" fill="#356e7c" stroke="#356e7c" stroke-width="1.51"/><path d="M902,632L903,758L933,655Z" fill="#60a191" stroke="#60a191" stroke-width="1.51"/><path d="M854,424L837,501L939,500Z" fill="#4f8f8a" stroke="#4f8f8a" stroke-width="1.51"/><path d="M829,333L854,424L940,354Z" fill="#478586" stroke="#478586" stroke-width="1.51"/><path d="M796,1134L622,1141L871,1187Z" fill="#79ba99" stroke="#79ba99" stroke-width="1.51"/><path d="M746,945L724,1009L889,938Z" fill="#6fb196" stroke="#6fb196" stroke-width="1.51"/><path d="M837,501L769,531L902,632Z" fill="#52968c" stroke="#52968c" stroke-width="1.51"/><path d="M889,938L724,1009L902,1079Z" fill="#75b598" stroke="#75b598" stroke-width="1.51"/><path d="M796,1134L871,1187L902,1079Z" fill="#7cbc9b" stroke="#7cbc9b" stroke-width="1.51"/><path d="M902,632L728,718L903,758Z" fill="#5fa191" stroke="#5fa191" stroke-width="1.51"/><path d="M849,-13L774,21L909,38Z" fill="#296176" stroke="#296176" stroke-width="1.51"/><path d="M774,21L807,144L909,38Z" fill="#2e6678" stroke="#2e6678" stroke-width="1.51"/><path d="M858,195L829,333L911,223Z" fill="#3e7981" stroke="#3e7981" stroke-width="1.51"/><path d="M733,619L728,718L902,632Z" fill="#599d8f" stroke="#599d8f" stroke-width="1.51"/><path d="M724,1009L796,1134L902,1079Z" fill="#77b899" stroke="#77b899" stroke-width="1.51"/><path d="M769,531L733,619L902,632Z" fill="#54998e" stroke="#54998e" stroke-width="1.51"/><path d="M728,718L839,858L903,758Z" fill="#64a592" stroke="#64a592" stroke-width="1.51"/><path d="M760,254L829,333L858,195Z" fill="#3e7a81" stroke="#3e7a81" stroke-width="1.51"/><path d="M576,-174L711,-111L792,-129Z" fill="#154f6e" stroke="#154f6e" stroke-width="1.51"/><path d="M839,-140L792,-129L849,-13Z" fill="#1c5471" stroke="#1c5471" stroke-width="1.51"/><path d="M839,858L771,878L889,938Z" fill="#6cad95" stroke="#6cad95" stroke-width="1.51"/><path d="M771,878L746,945L889,938Z" fill="#6daf95" stroke="#6daf95" stroke-width="1.51"/><path d="M728,718L771,878L839,858Z" fill="#65a793" stroke="#65a793" stroke-width="1.51"/><path d="M829,333L789,392L854,424Z" fill="#478686" stroke="#478686" stroke-width="1.51"/><path d="M792,-129L748,-5L849,-13Z" fill="#225972" stroke="#225972" stroke-width="1.51"/><path d="M751,484L837,501L854,424Z" fill="#4c8e8a" stroke="#4c8e8a" stroke-width="1.51"/><path d="M789,392L751,484L854,424Z" fill="#4a8b87" stroke="#4a8b87" stroke-width="1.51"/><path d="M807,144L760,254L858,195Z" fill="#38737e" stroke="#38737e" stroke-width="1.51"/><path d="M748,-5L774,21L849,-13Z" fill="#265f75" stroke="#265f75" stroke-width="1.51"/><path d="M728,718L674,784L771,878Z" fill="#61a592" stroke="#61a592" stroke-width="1.51"/><path d="M751,484L769,531L837,501Z" fill="#4e918b" stroke="#4e918b" stroke-width="1.51"/><path d="M774,21L715,133L807,144Z" fill="#30687a" stroke="#30687a" stroke-width="1.51"/><path d="M760,254L789,392L829,333Z" fill="#428084" stroke="#428084" stroke-width="1.51"/><path d="M700,666L728,718L733,619Z" fill="#589c8f" stroke="#589c8f" stroke-width="1.51"/><path d="M718,467L751,484L789,392Z" fill="#498b88" stroke="#498b88" stroke-width="1.51"/><path d="M760,254L642,312L789,392Z" fill="#407e83" stroke="#407e83" stroke-width="1.51"/><path d="M711,-111L748,-5L792,-129Z" fill="#1d5571" stroke="#1d5571" stroke-width="1.51"/><path d="M715,133L760,254L807,144Z" fill="#36717d" stroke="#36717d" stroke-width="1.51"/><path d="M724,1009L622,1141L796,1134Z" fill="#73b598" stroke="#73b598" stroke-width="1.51"/><path d="M642,312L718,467L789,392Z" fill="#448586" stroke="#448586" stroke-width="1.51"/><path d="M673,1009L622,1141L724,1009Z" fill="#6fb297" stroke="#6fb297" stroke-width="1.51"/><path d="M628,76L715,133L748,-5Z" fill="#2c6578" stroke="#2c6578" stroke-width="1.51"/><path d="M684,526L733,619L769,531Z" fill="#4f948c" stroke="#4f948c" stroke-width="1.51"/><path d="M674,784L636,885L771,878Z" fill="#64a792" stroke="#64a792" stroke-width="1.51"/><path d="M748,-5L715,133L774,21Z" fill="#2a6378" stroke="#2a6378" stroke-width="1.51"/><path d="M715,133L630,274L760,254Z" fill="#38757f" stroke="#38757f" stroke-width="1.51"/><path d="M636,885L746,945L771,878Z" fill="#68ab94" stroke="#68ab94" stroke-width="1.51"/><path d="M751,484L684,526L769,531Z" fill="#4c908a" stroke="#4c908a" stroke-width="1.51"/><path d="M254,-172L404,-134L576,-174Z" fill="#114c6c" stroke="#114c6c" stroke-width="1.51"/><path d="M711,-111L629,-13L748,-5Z" fill="#215973" stroke="#215973" stroke-width="1.51"/><path d="M630,274L642,312L760,254Z" fill="#3c7a81" stroke="#3c7a81" stroke-width="1.51"/><path d="M613,34L628,76L629,-13Z" fill="#276176" stroke="#276176" stroke-width="1.51"/><path d="M636,885L646,961L746,945Z" fill="#68ab94" stroke="#68ab94" stroke-width="1.51"/><path d="M629,-13L628,76L748,-5Z" fill="#276076" stroke="#276076" stroke-width="1.51"/><path d="M718,467L684,526L751,484Z" fill="#4b8e89" stroke="#4b8e89" stroke-width="1.51"/><path d="M673,1009L724,1009L746,945Z" fill="#6db096" stroke="#6db096" stroke-width="1.51"/><path d="M646,961L673,1009L746,945Z" fill="#6bae95" stroke="#6bae95" stroke-width="1.51"/><path d="M559,164L630,274L715,133Z" fill="#35717d" stroke="#35717d" stroke-width="1.51"/><path d="M642,312L599,330L718,467Z" fill="#418284" stroke="#418284" stroke-width="1.51"/><path d="M599,330L568,456L718,467Z" fill="#448686" stroke="#448686" stroke-width="1.51"/><path d="M590,591L700,666L733,619Z" fill="#52988d" stroke="#52988d" stroke-width="1.51"/><path d="M684,526L590,591L733,619Z" fill="#4e958c" stroke="#4e958c" stroke-width="1.51"/><path d="M700,666L674,784L728,718Z" fill="#5ba090" stroke="#5ba090" stroke-width="1.51"/><path d="M559,164L567,233L630,274Z" fill="#36737e" stroke="#36737e" stroke-width="1.51"/><path d="M628,76L559,164L715,133Z" fill="#2f6a7a" stroke="#2f6a7a" stroke-width="1.51"/><path d="M568,456L684,526L718,467Z" fill="#488d88" stroke="#488d88" stroke-width="1.51"/><path d="M600,780L674,784L700,666Z" fill="#5ba090" stroke="#5ba090" stroke-width="1.51"/><path d="M576,-174L629,-13L711,-111Z" fill="#1a5370" stroke="#1a5370" stroke-width="1.51"/><path d="M574,1013L622,1141L673,1009Z" fill="#6cb096" stroke="#6cb096" stroke-width="1.51"/><path d="M590,591L600,780L700,666Z" fill="#559b8e" stroke="#559b8e" stroke-width="1.51"/><path d="M600,780L636,885L674,784Z" fill="#5fa491" stroke="#5fa491" stroke-width="1.51"/><path d="M568,456L590,591L684,526Z" fill="#498f89" stroke="#498f89" stroke-width="1.51"/><path d="M590,591L520,617L600,780Z" fill="#51988d" stroke="#51988d" stroke-width="1.51"/><path d="M636,885L602,939L646,961Z" fill="#65aa93" stroke="#65aa93" stroke-width="1.51"/><path d="M646,961L574,1013L673,1009Z" fill="#6aae95" stroke="#6aae95" stroke-width="1.51"/><path d="M-31,-191L176,-161L254,-172Z" fill="#0e4a6c" stroke="#0e4a6c" stroke-width="1.51"/><path d="M574,1013L569,1147L622,1141Z" fill="#6db196" stroke="#6db196" stroke-width="1.51"/><path d="M576,-174L534,-3L629,-13Z" fill="#1e5672" stroke="#1e5672" stroke-width="1.51"/><path d="M600,780L541,842L636,885Z" fill="#5ea491" stroke="#5ea491" stroke-width="1.51"/><path d="M602,939L574,1013L646,961Z" fill="#67ab94" stroke="#67ab94" stroke-width="1.51"/><path d="M630,274L599,330L642,312Z" fill="#3c7c82" stroke="#3c7c82" stroke-width="1.51"/><path d="M541,842L602,939L636,885Z" fill="#61a692" stroke="#61a692" stroke-width="1.51"/><path d="M534,-3L613,34L629,-13Z" fill="#255e75" stroke="#255e75" stroke-width="1.51"/><path d="M567,233L599,330L630,274Z" fill="#3a7981" stroke="#3a7981" stroke-width="1.51"/><path d="M613,34L487,49L628,76Z" fill="#296377" stroke="#296377" stroke-width="1.51"/><path d="M487,49L559,164L628,76Z" fill="#2b6778" stroke="#2b6778" stroke-width="1.51"/><path d="M520,617L433,718L600,780Z" fill="#52988d" stroke="#52988d" stroke-width="1.51"/><path d="M423,-109L534,-3L576,-174Z" fill="#1a5370" stroke="#1a5370" stroke-width="1.51"/><path d="M568,456L520,617L590,591Z" fill="#489089" stroke="#489089" stroke-width="1.51"/><path d="M490,329L568,456L599,330Z" fill="#3e8084" stroke="#3e8084" stroke-width="1.51"/><path d="M534,-3L487,49L613,34Z" fill="#266076" stroke="#266076" stroke-width="1.51"/><path d="M437,554L520,617L568,456Z" fill="#468e89" stroke="#468e89" stroke-width="1.51"/><path d="M567,233L490,329L599,330Z" fill="#3a7a81" stroke="#3a7a81" stroke-width="1.51"/><path d="M433,718L457,804L600,780Z" fill="#559b8e" stroke="#559b8e" stroke-width="1.51"/><path d="M452,990L574,1013L602,939Z" fill="#64a993" stroke="#64a993" stroke-width="1.51"/><path d="M541,842L452,990L602,939Z" fill="#60a692" stroke="#60a692" stroke-width="1.51"/><path d="M440,1134L569,1147L574,1013Z" fill="#69ad95" stroke="#69ad95" stroke-width="1.51"/><path d="M457,804L541,842L600,780Z" fill="#599f8f" stroke="#599f8f" stroke-width="1.51"/><path d="M410,1060L440,1134L452,990Z" fill="#62a792" stroke="#62a792" stroke-width="1.51"/><path d="M487,49L480,151L559,164Z" fill="#2d6979" stroke="#2d6979" stroke-width="1.51"/><path d="M452,990L440,1134L574,1013Z" fill="#64a993" stroke="#64a993" stroke-width="1.51"/><path d="M490,329L423,411L568,456Z" fill="#3e8284" stroke="#3e8284" stroke-width="1.51"/><path d="M404,-134L423,-109L576,-174Z" fill="#144f6e" stroke="#144f6e" stroke-width="1.51"/><path d="M446,635L433,718L520,617Z" fill="#4c948b" stroke="#4c948b" stroke-width="1.51"/><path d="M423,-109L431,-17L534,-3Z" fill="#1e5873" stroke="#1e5873" stroke-width="1.51"/><path d="M405,943L452,990L541,842Z" fill="#5da290" stroke="#5da290" stroke-width="1.51"/><path d="M429,219L490,329L567,233Z" fill="#36757f" stroke="#36757f" stroke-width="1.51"/><path d="M559,164L480,151L567,233Z" fill="#316f7d" stroke="#316f7d" stroke-width="1.51"/><path d="M423,411L437,554L568,456Z" fill="#418787" stroke="#418787" stroke-width="1.51"/><path d="M480,151L429,219L567,233Z" fill="#326f7d" stroke="#326f7d" stroke-width="1.51"/><path d="M423,411L402,434L437,554Z" fill="#3f8585" stroke="#3f8585" stroke-width="1.51"/><path d="M457,804L405,943L541,842Z" fill="#599f90" stroke="#599f90" stroke-width="1.51"/><path d="M431,-17L487,49L534,-3Z" fill="#245d74" stroke="#245d74" stroke-width="1.51"/><path d="M437,554L446,635L520,617Z" fill="#48908a" stroke="#48908a" stroke-width="1.51"/><path d="M427,1001L410,1060L452,990Z" fill="#5fa492" stroke="#5fa492" stroke-width="1.51"/><path d="M433,718L411,768L457,804Z" fill="#52988d" stroke="#52988d" stroke-width="1.51"/><path d="M401,171L480,151L487,49Z" fill="#2c6879" stroke="#2c6879" stroke-width="1.51"/><path d="M361,18L401,171L487,49Z" fill="#286477" stroke="#286477" stroke-width="1.51"/><path d="M429,219L415,325L490,329Z" fill="#36777f" stroke="#36777f" stroke-width="1.51"/><path d="M415,325L423,411L490,329Z" fill="#3a7c82" stroke="#3a7c82" stroke-width="1.51"/><path d="M401,171L429,219L480,151Z" fill="#2f6d7b" stroke="#2f6d7b" stroke-width="1.51"/><path d="M431,-17L361,18L487,49Z" fill="#235e75" stroke="#235e75" stroke-width="1.51"/><path d="M326,1122L280,1162L440,1134Z" fill="#5fa492" stroke="#5fa492" stroke-width="1.51"/><path d="M375,294L415,325L429,219Z" fill="#35757f" stroke="#35757f" stroke-width="1.51"/><path d="M402,434L346,550L437,554Z" fill="#408887" stroke="#408887" stroke-width="1.51"/><path d="M354,688L433,718L446,635Z" fill="#4b938b" stroke="#4b938b" stroke-width="1.51"/><path d="M405,943L427,1001L452,990Z" fill="#5da391" stroke="#5da391" stroke-width="1.51"/><path d="M411,768L326,813L457,804Z" fill="#52998d" stroke="#52998d" stroke-width="1.51"/><path d="M326,813L405,943L457,804Z" fill="#559b8e" stroke="#559b8e" stroke-width="1.51"/><path d="M437,554L346,550L446,635Z" fill="#448d89" stroke="#448d89" stroke-width="1.51"/><path d="M423,-109L323,-80L431,-17Z" fill="#1b5571" stroke="#1b5571" stroke-width="1.51"/><path d="M315,609L354,688L446,635Z" fill="#478f8a" stroke="#478f8a" stroke-width="1.51"/><path d="M346,550L315,609L446,635Z" fill="#448d89" stroke="#448d89" stroke-width="1.51"/><path d="M410,1060L326,1122L440,1134Z" fill="#60a692" stroke="#60a692" stroke-width="1.51"/><path d="M415,325L402,434L423,411Z" fill="#3b7f83" stroke="#3b7f83" stroke-width="1.51"/><path d="M323,-80L361,18L431,-17Z" fill="#1e5973" stroke="#1e5973" stroke-width="1.51"/><path d="M354,688L411,768L433,718Z" fill="#4e958c" stroke="#4e958c" stroke-width="1.51"/><path d="M375,294L402,434L415,325Z" fill="#387b81" stroke="#387b81" stroke-width="1.51"/><path d="M401,171L375,294L429,219Z" fill="#31717d" stroke="#31717d" stroke-width="1.51"/><path d="M286,940L410,1060L427,1001Z" fill="#5ba090" stroke="#5ba090" stroke-width="1.51"/><path d="M405,943L286,940L427,1001Z" fill="#599f8f" stroke="#599f8f" stroke-width="1.51"/><path d="M279,196L375,294L401,171Z" fill="#306f7d" stroke="#306f7d" stroke-width="1.51"/><path d="M375,294L290,445L402,434Z" fill="#397d83" stroke="#397d83" stroke-width="1.51"/><path d="M326,813L286,940L405,943Z" fill="#549a8e" stroke="#549a8e" stroke-width="1.51"/><path d="M286,940L303,1096L410,1060Z" fill="#5aa090" stroke="#5aa090" stroke-width="1.51"/><path d="M404,-134L323,-80L423,-109Z" fill="#17516f" stroke="#17516f" stroke-width="1.51"/><path d="M279,196L284,266L375,294Z" fill="#30727d" stroke="#30727d" stroke-width="1.51"/><path d="M361,18L279,196L401,171Z" fill="#2a6779" stroke="#2a6779" stroke-width="1.51"/><path d="M290,445L346,550L402,434Z" fill="#3d8385" stroke="#3d8385" stroke-width="1.51"/><path d="M233,51L279,196L361,18Z" fill="#266377" stroke="#266377" stroke-width="1.51"/><path d="M303,1096L326,1122L410,1060Z" fill="#5da391" stroke="#5da391" stroke-width="1.51"/><path d="M354,688L326,813L411,768Z" fill="#4e958c" stroke="#4e958c" stroke-width="1.51"/><path d="M232,362L290,445L375,294Z" fill="#367a81" stroke="#367a81" stroke-width="1.51"/><path d="M254,-172L323,-80L404,-134Z" fill="#144f6f" stroke="#144f6f" stroke-width="1.51"/><path d="M272,747L326,813L354,688Z" fill="#4b928b" stroke="#4b928b" stroke-width="1.51"/><path d="M323,-80L267,-41L361,18Z" fill="#1e5872" stroke="#1e5872" stroke-width="1.51"/><path d="M284,266L232,362L375,294Z" fill="#33757f" stroke="#33757f" stroke-width="1.51"/><path d="M287,810L286,940L326,813Z" fill="#50978c" stroke="#50978c" stroke-width="1.51"/><path d="M267,-41L233,51L361,18Z" fill="#215c74" stroke="#215c74" stroke-width="1.51"/><path d="M209,1141L81,1195L280,1162Z" fill="#569b8e" stroke="#569b8e" stroke-width="1.51"/><path d="M272,747L287,810L326,813Z" fill="#4c938b" stroke="#4c938b" stroke-width="1.51"/><path d="M290,445L281,581L346,550Z" fill="#3d8685" stroke="#3d8685" stroke-width="1.51"/><path d="M315,609L272,747L354,688Z" fill="#478f8a" stroke="#478f8a" stroke-width="1.51"/><path d="M281,581L315,609L346,550Z" fill="#408a87" stroke="#408a87" stroke-width="1.51"/><path d="M286,940L177,997L303,1096Z" fill="#549b8e" stroke="#549b8e" stroke-width="1.51"/><path d="M281,581L190,698L315,609Z" fill="#418b88" stroke="#418b88" stroke-width="1.51"/><path d="M190,698L272,747L315,609Z" fill="#448d89" stroke="#448d89" stroke-width="1.51"/><path d="M254,-172L267,-41L323,-80Z" fill="#175270" stroke="#175270" stroke-width="1.51"/><path d="M303,1096L280,1162L326,1122Z" fill="#5ca190" stroke="#5ca190" stroke-width="1.51"/><path d="M233,51L137,118L279,196Z" fill="#276578" stroke="#276578" stroke-width="1.51"/><path d="M131,862L286,940L287,810Z" fill="#4d948c" stroke="#4d948c" stroke-width="1.51"/><path d="M128,574L281,581L290,445Z" fill="#3a8485" stroke="#3a8485" stroke-width="1.51"/><path d="M211,404L128,574L290,445Z" fill="#377f83" stroke="#377f83" stroke-width="1.51"/><path d="M232,362L211,404L290,445Z" fill="#357b81" stroke="#357b81" stroke-width="1.51"/><path d="M209,1141L280,1162L303,1096Z" fill="#599f8f" stroke="#599f8f" stroke-width="1.51"/><path d="M177,997L209,1141L303,1096Z" fill="#559b8e" stroke="#559b8e" stroke-width="1.51"/><path d="M177,997L147,1093L209,1141Z" fill="#53988c" stroke="#53988c" stroke-width="1.51"/><path d="M200,-10L233,51L267,-41Z" fill="#1f5a73" stroke="#1f5a73" stroke-width="1.51"/><path d="M254,-172L176,-161L267,-41Z" fill="#154f6f" stroke="#154f6f" stroke-width="1.51"/><path d="M131,862L177,997L286,940Z" fill="#4e958c" stroke="#4e958c" stroke-width="1.51"/><path d="M204,764L131,862L287,810Z" fill="#49918a" stroke="#49918a" stroke-width="1.51"/><path d="M272,747L204,764L287,810Z" fill="#49918a" stroke="#49918a" stroke-width="1.51"/><path d="M128,574L190,698L281,581Z" fill="#3d8786" stroke="#3d8786" stroke-width="1.51"/><path d="M279,196L121,202L284,266Z" fill="#2d6d7c" stroke="#2d6d7c" stroke-width="1.51"/><path d="M121,202L232,362L284,266Z" fill="#2f727e" stroke="#2f727e" stroke-width="1.51"/><path d="M176,-161L200,-10L267,-41Z" fill="#195471" stroke="#195471" stroke-width="1.51"/><path d="M137,118L121,202L279,196Z" fill="#296879" stroke="#296879" stroke-width="1.51"/><path d="M190,698L204,764L272,747Z" fill="#468e89" stroke="#468e89" stroke-width="1.51"/><path d="M121,202L162,384L232,362Z" fill="#30737e" stroke="#30737e" stroke-width="1.51"/><path d="M90,541L128,574L211,404Z" fill="#377f83" stroke="#377f83" stroke-width="1.51"/><path d="M4,1176L-88,1185L81,1195Z" fill="#4f8d88" stroke="#4f8d88" stroke-width="1.51"/><path d="M121,202L98,216L162,384Z" fill="#2d6f7c" stroke="#2d6f7c" stroke-width="1.51"/><path d="M131,862L117,982L177,997Z" fill="#4d928a" stroke="#4d928a" stroke-width="1.51"/><path d="M176,-161L78,-72L200,-10Z" fill="#185370" stroke="#185370" stroke-width="1.51"/><path d="M162,384L90,541L211,404Z" fill="#357b82" stroke="#357b82" stroke-width="1.51"/><path d="M200,-10L125,30L233,51Z" fill="#205c74" stroke="#205c74" stroke-width="1.51"/><path d="M125,30L137,118L233,51Z" fill="#236075" stroke="#236075" stroke-width="1.51"/><path d="M162,384L211,404L232,362Z" fill="#337881" stroke="#337881" stroke-width="1.51"/><path d="M98,216L38,340L162,384Z" fill="#2e717d" stroke="#2e717d" stroke-width="1.51"/><path d="M-31,-191L68,-130L176,-161Z" fill="#104b6c" stroke="#104b6c" stroke-width="1.51"/><path d="M93,816L131,862L204,764Z" fill="#478d88" stroke="#478d88" stroke-width="1.51"/><path d="M147,1093L81,1195L209,1141Z" fill="#54978c" stroke="#54978c" stroke-width="1.51"/><path d="M31,450L90,541L162,384Z" fill="#357b81" stroke="#357b81" stroke-width="1.51"/><path d="M78,-72L125,30L200,-10Z" fill="#1d5872" stroke="#1d5872" stroke-width="1.51"/><path d="M190,698L67,784L204,764Z" fill="#458b88" stroke="#458b88" stroke-width="1.51"/><path d="M67,784L93,816L204,764Z" fill="#458b88" stroke="#458b88" stroke-width="1.51"/><path d="M108,189L121,202L137,118Z" fill="#286779" stroke="#286779" stroke-width="1.51"/><path d="M68,-130L78,-72L176,-161Z" fill="#144f6e" stroke="#144f6e" stroke-width="1.51"/><path d="M117,982L147,1093L177,997Z" fill="#50948b" stroke="#50948b" stroke-width="1.51"/><path d="M128,574L33,615L190,698Z" fill="#3c8586" stroke="#3c8586" stroke-width="1.51"/><path d="M33,615L67,784L190,698Z" fill="#418686" stroke="#418686" stroke-width="1.51"/><path d="M117,982L25,1079L147,1093Z" fill="#50928b" stroke="#50928b" stroke-width="1.51"/><path d="M38,340L31,450L162,384Z" fill="#31757f" stroke="#31757f" stroke-width="1.51"/><path d="M78,-72L48,25L125,30Z" fill="#1d5973" stroke="#1d5973" stroke-width="1.51"/><path d="M5,929L117,982L131,862Z" fill="#4a8d89" stroke="#4a8d89" stroke-width="1.51"/><path d="M125,30L48,25L137,118Z" fill="#215e75" stroke="#215e75" stroke-width="1.51"/><path d="M25,1079L81,1195L147,1093Z" fill="#51928a" stroke="#51928a" stroke-width="1.51"/><path d="M-13,137L108,189L137,118Z" fill="#266478" stroke="#266478" stroke-width="1.51"/><path d="M48,25L-13,137L137,118Z" fill="#236076" stroke="#236076" stroke-width="1.51"/><path d="M90,541L33,615L128,574Z" fill="#398084" stroke="#398084" stroke-width="1.51"/><path d="M93,816L8,838L131,862Z" fill="#478b88" stroke="#478b88" stroke-width="1.51"/><path d="M8,838L5,929L131,862Z" fill="#478a87" stroke="#478a87" stroke-width="1.51"/><path d="M33,615L-25,767L67,784Z" fill="#408485" stroke="#408485" stroke-width="1.51"/><path d="M108,189L98,216L121,202Z" fill="#2a6a7a" stroke="#2a6a7a" stroke-width="1.51"/><path d="M25,1079L4,1176L81,1195Z" fill="#508f89" stroke="#508f89" stroke-width="1.51"/><path d="M5,929L25,1079L117,982Z" fill="#4c8d89" stroke="#4c8d89" stroke-width="1.51"/><path d="M-33,640L-25,767L33,615Z" fill="#3c8184" stroke="#3c8184" stroke-width="1.51"/><path d="M-33,244L38,340L98,216Z" fill="#2c6c7b" stroke="#2c6c7b" stroke-width="1.51"/><path d="M-13,137L98,216L108,189Z" fill="#286778" stroke="#286778" stroke-width="1.51"/><path d="M31,450L-8,503L90,541Z" fill="#357b82" stroke="#357b82" stroke-width="1.51"/><path d="M-13,137L-33,244L98,216Z" fill="#286779" stroke="#286779" stroke-width="1.51"/><path d="M67,784L8,838L93,816Z" fill="#458986" stroke="#458986" stroke-width="1.51"/><path d="M-8,503L33,615L90,541Z" fill="#367e82" stroke="#367e82" stroke-width="1.51"/><path d="M-33,244L-38,302L38,340Z" fill="#2c6d7b" stroke="#2c6d7b" stroke-width="1.51"/><path d="M68,-130L-25,-83L78,-72Z" fill="#16516f" stroke="#16516f" stroke-width="1.51"/><path d="M-25,-83L48,25L78,-72Z" fill="#1a5571" stroke="#1a5571" stroke-width="1.51"/><path d="M5,929L-75,1031L25,1079Z" fill="#4a8987" stroke="#4a8987" stroke-width="1.51"/><path d="M-50,86L-13,137L48,25Z" fill="#225e75" stroke="#225e75" stroke-width="1.51"/><path d="M-31,-191L-25,-83L68,-130Z" fill="#134d6d" stroke="#134d6d" stroke-width="1.51"/><path d="M-25,767L8,838L67,784Z" fill="#438686" stroke="#438686" stroke-width="1.51"/><path d="M-8,503L-33,640L33,615Z" fill="#377e82" stroke="#377e82" stroke-width="1.51"/><path d="M-74,413L31,450L38,340Z" fill="#30747e" stroke="#30747e" stroke-width="1.51"/><path d="M-25,-83L-50,86L48,25Z" fill="#1e5972" stroke="#1e5972" stroke-width="1.51"/><path d="M-121,26L-50,86L-25,-83Z" fill="#1d5872" stroke="#1d5872" stroke-width="1.51"/><path d="M-94,597L-33,640L-8,503Z" fill="#367c81" stroke="#367c81" stroke-width="1.51"/><path d="M-38,302L-74,413L38,340Z" fill="#2e707d" stroke="#2e707d" stroke-width="1.51"/><path d="M-88,1185L4,1176L25,1079Z" fill="#4e8b88" stroke="#4e8b88" stroke-width="1.51"/><path d="M-75,1031L-88,1185L25,1079Z" fill="#4c8987" stroke="#4c8987" stroke-width="1.51"/><path d="M-74,413L-8,503L31,450Z" fill="#32767f" stroke="#32767f" stroke-width="1.51"/><path d="M-120,867L5,929L8,838Z" fill="#458685" stroke="#458685" stroke-width="1.51"/><path d="M-25,767L-120,867L8,838Z" fill="#428385" stroke="#428385" stroke-width="1.51"/><path d="M-31,-191L-101,-172L-25,-83Z" fill="#104c6d" stroke="#104c6d" stroke-width="1.51"/><path d="M-33,640L-141,689L-25,767Z" fill="#3c7f83" stroke="#3c7f83" stroke-width="1.51"/><path d="M-120,867L-75,1031L5,929Z" fill="#478585" stroke="#478585" stroke-width="1.51"/><path d="M-120,867L-165,992L-75,1031Z" fill="#458284" stroke="#458284" stroke-width="1.51"/><path d="M-148,-12L-121,26L-25,-83Z" fill="#1b5671" stroke="#1b5671" stroke-width="1.51"/><path d="M-161,134L-33,244L-13,137Z" fill="#266477" stroke="#266477" stroke-width="1.51"/><path d="M-74,413L-94,597L-8,503Z" fill="#337780" stroke="#337780" stroke-width="1.51"/><path d="M-50,86L-161,134L-13,137Z" fill="#236076" stroke="#236076" stroke-width="1.51"/><path d="M-139,1034L-88,1185L-75,1031Z" fill="#4a8585" stroke="#4a8585" stroke-width="1.51"/><path d="M-121,404L-94,597L-74,413Z" fill="#31757f" stroke="#31757f" stroke-width="1.51"/><path d="M-139,332L-74,413L-38,302Z" fill="#2d6f7c" stroke="#2d6f7c" stroke-width="1.51"/><path d="M-101,-172L-148,-12L-25,-83Z" fill="#16516f" stroke="#16516f" stroke-width="1.51"/><path d="M-159,734L-120,867L-25,767Z" fill="#3f7f83" stroke="#3f7f83" stroke-width="1.51"/><path d="M-141,689L-159,734L-25,767Z" fill="#3c7e82" stroke="#3c7e82" stroke-width="1.51"/><path d="M-139,332L-121,404L-74,413Z" fill="#2e6f7d" stroke="#2e6f7d" stroke-width="1.51"/><path d="M-139,332L-38,302L-33,244Z" fill="#2b6b7b" stroke="#2b6b7b" stroke-width="1.51"/><path d="M-161,134L-179,294L-33,244Z" fill="#286578" stroke="#286578" stroke-width="1.51"/><path d="M-94,597L-141,689L-33,640Z" fill="#397c82" stroke="#397c82" stroke-width="1.51"/><path d="M-179,294L-139,332L-33,244Z" fill="#2a6a7a" stroke="#2a6a7a" stroke-width="1.51"/><path d="M-121,26L-161,134L-50,86Z" fill="#215d75" stroke="#215d75" stroke-width="1.51"/><path d="M-165,992L-139,1034L-75,1031Z" fill="#478384" stroke="#478384" stroke-width="1.51"/><path d="M-121,404L-141,689L-94,597Z" fill="#337880" stroke="#337880" stroke-width="1.51"/><path d="M-139,1034L-165,992L-88,1185Z" fill="#488284" stroke="#488284" stroke-width="1.51"/><path d="M-179,294L-159,734L-141,689Z" fill="#327780" stroke="#327780" stroke-width="1.51"/><path d="M-148,-12L-161,134L-121,26Z" fill="#1e5a74" stroke="#1e5a74" stroke-width="1.51"/><path d="M-179,294L-141,689L-121,404Z" fill="#30727e" stroke="#30727e" stroke-width="1.51"/><path d="M-159,734L-165,992L-120,867Z" fill="#417f83" stroke="#417f83" stroke-width="1.51"/><path d="M-139,332L-179,294L-121,404Z" fill="#2c6c7b" stroke="#2c6c7b" stroke-width="1.51"/><path d="M-179,294L-161,134L-148,-12Z" fill="#235f76" stroke="#235f76" stroke-width="1.51"/><path d="M-179,294L-165,992L-159,734Z" fill="#387981" stroke="#387981" stroke-width="1.51"/><g xmlns="http://www.w3.org/1999/xhtml" transform="translate(0,3000)"></g><g xmlns="http://www.w3.org/1999/xhtml" transform="scale(-1,-1)"></g></svg>