<?xml version="1.0" standalone="no"?><!DOCTYPE svg PUBLIC "-//W3C//DTD SVG 1.1//EN" "http://www.w3.org/Graphics/SVG/1.1/DTD/svg11.dtd"><svg width="1236" height="1000" version="1.1" xmlns="http://www.w3.org/2000/svg" xmlns:xlink="http://www.w3.org/1999/xlink"><defs xmlns="http://www.w3.org/1999/xhtml"><style type="text/css"><![CDATA[
html, body, div, span, applet, object, iframe, h1, h2, h3, h4, h5, h6, p, blockquote, pre, a, abbr, acronym, address, big, cite, code, del, dfn, em, img, ins, kbd, q, s, samp, small, strike, strong, sub, sup, tt, var, b, u, i, center, dl, dt, dd, ol, ul, li, fieldset, form, label, legend, table, caption, tbody, tfoot, thead, tr, th, td, article, aside, canvas, details, embed, figure, figcaption, footer, header, hgroup, menu, nav, output, ruby, section, summary, time, mark, audio, video { margin: 0px; padding: 0px; border: 0px; font-style: inherit; font-variant: inherit; font-weight: inherit; font-stretch: inherit; font-size: inherit; line-height: inherit; font-family: inherit; vertical-align: baseline; }
article, aside, details, figcaption, figure, footer, header, hgroup, menu, nav, section { display: block; }
body { line-height: 1; }
ol, ul { list-style: none; }
blockquote, q { quotes: none; }
blockquote::before, blockquote::after, q::before, q::after { content: none; }
table { border-collapse: collapse; border-spacing: 0px; }
html { box-sizing: border-box; }
*, ::before, ::after { box-sizing: inherit; }
body { margin: 0px 20px; font-family: Sanchez; background: rgb(34, 34, 34); }
body em { font-style: italic; }
body b { font-weight: bold; }
.corner-left { position: absolute; top: 0px; left: 0px; width: 0px; height: 0px; border-style: solid; border-width: 0px; border-color: rgb(34, 34, 34) transparent transparent; }
.corner-right { position: absolute; top: 0px; right: 0px; width: 0px; height: 0px; border-style: solid; border-width: 0px; border-color: rgb(34, 34, 34) transparent transparent; }
.ribbon { position: fixed; top: 0px; width: 7px; height: 100%; background-size: 7px 31px; }
.ribbon.right { right: 20px; background-image: url(http://localhost:8001/img/ribbon-right.png); }
.ribbon.left { left: 20px; background-image: url(http://localhost:8001/img/ribbon-left.png); }
#wrapper { position: relative; display: block; margin: 0px auto; }
#sidebar { position: fixed; top: 0px; margin: 15px 0px 0px 35px; display: block; height: 100%; }
#sidebar .menu-items { text-align: right; font-size: 25px; color: rgb(203, 215, 227); font-family: 'Arial Black'; }
#sidebar .menu-items div { color: white; opacity: 0.7; transition: 1s; margin-top: 25px; cursor: pointer; }
#sidebar .menu-items div:hover { color: white; }
#sidebar .menu-items div:first-child { opacity: 1; color: white; }
.paint { position: absolute; height: 100%; width: 200px; top: 0px; left: -50px; opacity: 0.5; background-image: url(http://localhost:8001/img/grudge-paint.png); background-size: 100% 100%; }
#content { position: relative; padding: 60px 15%; color: white; display: block; width: 100%; height: 3000px; background-size: 100%; }
#content svg { position: absolute; top: 0px; left: 0px; z-index: -1; }
#content .logo { position: relative; width: 100%; height: auto; max-width: 500px; margin: 30px auto 40px; display: block; }
#content .logo img { width: 100%; }
#content .ornament, #content .ornament2 { position: absolute; top: -47%; right: 2.75%; width: 45%; zoom: 0.65; overflow: hidden; }
#content .ornament img, #content .ornament2 img { width: 100%; }
#content .ornament { opacity: 1; }
#content .ornament2 { opacity: 0.2; }
#content .desc { width: 80%; font-size: 25px; line-height: 1.2; text-align: center; display: block; font-weight: bold; margin: 0px auto; padding-bottom: 50px; border-bottom-width: 3px; border-bottom-style: dashed; border-bottom-color: white; text-shadow: rgba(0, 0, 0, 0.2) 0px 0px 5px; }
#content .desc span { color: rgb(248, 235, 192); font-weight: bold; }
#content .black-box { padding: 20px 40px; display: block; margin: 40px auto 0px; width: 70%; height: 175px; border-radius: 20px; background: rgba(0, 0, 0, 0.298039); }]]></style></defs><path d="M345,-185L590,-154L901,-180Z" fill="#200413" stroke="#200413" stroke-width="1.51"/><path d="M309,-190L345,-185L901,-180Z" fill="#1f0213" stroke="#1f0213" stroke-width="1.51"/><path d="M309,-190L901,-180L1104,-200Z" fill="#1e0213" stroke="#1e0213" stroke-width="1.51"/><path d="M880,1181L689,1187L1164,1184Z" fill="#b00c05" stroke="#b00c05" stroke-width="1.51"/><path d="M1348,241L1303,272L1357,370Z" fill="#6f0e0b" stroke="#6f0e0b" stroke-width="1.51"/><path d="M1104,-200L1269,-156L1368,-146Z" fill="#220412" stroke="#220412" stroke-width="1.51"/><path d="M1311,997L1369,1086L1395,869Z" fill="#ba1c06" stroke="#ba1c06" stroke-width="1.51"/><path d="M1324,904L1311,997L1395,869Z" fill="#b41b06" stroke="#b41b06" stroke-width="1.51"/><path d="M1370,723L1316,829L1395,869Z" fill="#ab1807" stroke="#ab1807" stroke-width="1.51"/><path d="M1395,869L1369,1086L1399,1138Z" fill="#bf1f06" stroke="#bf1f06" stroke-width="1.51"/><path d="M1314,103L1348,241L1401,118Z" fill="#590e0e" stroke="#590e0e" stroke-width="1.51"/><path d="M1357,370L1366,411L1401,118Z" fill="#700f0b" stroke="#700f0b" stroke-width="1.51"/><path d="M1348,241L1357,370L1401,118Z" fill="#670e0d" stroke="#670e0d" stroke-width="1.51"/><path d="M1364,-37L1362,41L1401,118Z" fill="#450d11" stroke="#450d11" stroke-width="1.51"/><path d="M1368,-146L1364,-37L1401,118Z" fill="#3b0c11" stroke="#3b0c11" stroke-width="1.51"/><path d="M1265,610L1370,723L1411,634Z" fill="#9d1407" stroke="#9d1407" stroke-width="1.51"/><path d="M1335,527L1265,610L1411,634Z" fill="#951207" stroke="#951207" stroke-width="1.51"/><path d="M1366,411L1335,527L1411,634Z" fill="#8f1007" stroke="#8f1007" stroke-width="1.51"/><path d="M1370,723L1395,869L1411,634Z" fill="#a71807" stroke="#a71807" stroke-width="1.51"/><path d="M1395,869L1399,1138L1411,634Z" fill="#b31c06" stroke="#b31c06" stroke-width="1.51"/><path d="M1401,118L1366,411L1411,634Z" fill="#7e100a" stroke="#7e100a" stroke-width="1.51"/><path d="M1265,610L1286,727L1370,723Z" fill="#9e1307" stroke="#9e1307" stroke-width="1.51"/><path d="M1362,41L1314,103L1401,118Z" fill="#4e0d10" stroke="#4e0d10" stroke-width="1.51"/><path d="M1369,1086L1299,1161L1399,1138Z" fill="#c52005" stroke="#c52005" stroke-width="1.51"/><path d="M1316,829L1324,904L1395,869Z" fill="#b01906" stroke="#b01906" stroke-width="1.51"/><path d="M1303,272L1263,366L1357,370Z" fill="#740e0a" stroke="#740e0a" stroke-width="1.51"/><path d="M1287,-15L1313,59L1362,41Z" fill="#430c10" stroke="#430c10" stroke-width="1.51"/><path d="M1313,59L1314,103L1362,41Z" fill="#490d10" stroke="#490d10" stroke-width="1.51"/><path d="M1287,-15L1362,41L1364,-37Z" fill="#3e0c10" stroke="#3e0c10" stroke-width="1.51"/><path d="M1269,-156L1287,-15L1364,-37Z" fill="#320b12" stroke="#320b12" stroke-width="1.51"/><path d="M1273,428L1335,527L1366,411Z" fill="#870e07" stroke="#870e07" stroke-width="1.51"/><path d="M1269,-156L1364,-37L1368,-146Z" fill="#2b0911" stroke="#2b0911" stroke-width="1.51"/><path d="M1311,997L1277,1016L1369,1086Z" fill="#bc1c05" stroke="#bc1c05" stroke-width="1.51"/><path d="M1286,727L1316,829L1370,723Z" fill="#a51606" stroke="#a51606" stroke-width="1.51"/><path d="M1277,1016L1299,1161L1369,1086Z" fill="#c01d05" stroke="#c01d05" stroke-width="1.51"/><path d="M1314,103L1207,136L1348,241Z" fill="#580d0e" stroke="#580d0e" stroke-width="1.51"/><path d="M1273,428L1278,524L1335,527Z" fill="#8a0e07" stroke="#8a0e07" stroke-width="1.51"/><path d="M1207,136L1303,272L1348,241Z" fill="#610d0d" stroke="#610d0d" stroke-width="1.51"/><path d="M1357,370L1273,428L1366,411Z" fill="#7f0e09" stroke="#7f0e09" stroke-width="1.51"/><path d="M1278,524L1265,610L1335,527Z" fill="#900f07" stroke="#900f07" stroke-width="1.51"/><path d="M1263,366L1273,428L1357,370Z" fill="#7c0e09" stroke="#7c0e09" stroke-width="1.51"/><path d="M1269,-156L1211,-75L1287,-15Z" fill="#300a12" stroke="#300a12" stroke-width="1.51"/><path d="M1207,136L1185,251L1303,272Z" fill="#610c0d" stroke="#610c0d" stroke-width="1.51"/><path d="M1188,959L1277,1016L1311,997Z" fill="#b61805" stroke="#b61805" stroke-width="1.51"/><path d="M1316,829L1143,870L1324,904Z" fill="#ac1606" stroke="#ac1606" stroke-width="1.51"/><path d="M1143,870L1188,959L1324,904Z" fill="#ae1505" stroke="#ae1505" stroke-width="1.51"/><path d="M1188,959L1311,997L1324,904Z" fill="#b41806" stroke="#b41806" stroke-width="1.51"/><path d="M1277,1016L1164,1184L1299,1161Z" fill="#be1b04" stroke="#be1b04" stroke-width="1.51"/><path d="M1287,-15L1203,47L1313,59Z" fill="#430c10" stroke="#430c10" stroke-width="1.51"/><path d="M1313,59L1203,47L1314,103Z" fill="#4a0d0f" stroke="#4a0d0f" stroke-width="1.51"/><path d="M1286,727L1163,784L1316,829Z" fill="#a41406" stroke="#a41406" stroke-width="1.51"/><path d="M1163,784L1143,870L1316,829Z" fill="#a71306" stroke="#a71306" stroke-width="1.51"/><path d="M1203,47L1207,136L1314,103Z" fill="#4e0c0f" stroke="#4e0c0f" stroke-width="1.51"/><path d="M1273,428L1195,475L1278,524Z" fill="#870c06" stroke="#870c06" stroke-width="1.51"/><path d="M1265,610L1197,619L1286,727Z" fill="#981107" stroke="#981107" stroke-width="1.51"/><path d="M1185,251L1263,366L1303,272Z" fill="#6d0d0b" stroke="#6d0d0b" stroke-width="1.51"/><path d="M1104,-200L1164,-135L1269,-156Z" fill="#220512" stroke="#220512" stroke-width="1.51"/><path d="M1126,1008L1164,1184L1277,1016Z" fill="#b81705" stroke="#b81705" stroke-width="1.51"/><path d="M1007,1143L880,1181L1164,1184Z" fill="#b41004" stroke="#b41004" stroke-width="1.51"/><path d="M1197,619L1265,610L1278,524Z" fill="#920f06" stroke="#920f06" stroke-width="1.51"/><path d="M1169,597L1197,619L1278,524Z" fill="#900e06" stroke="#900e06" stroke-width="1.51"/><path d="M1197,619L1163,784L1286,727Z" fill="#9c1106" stroke="#9c1106" stroke-width="1.51"/><path d="M1211,-75L1203,47L1287,-15Z" fill="#3c0b11" stroke="#3c0b11" stroke-width="1.51"/><path d="M1185,251L1141,306L1263,366Z" fill="#6e0c0a" stroke="#6e0c0a" stroke-width="1.51"/><path d="M1188,959L1126,1008L1277,1016Z" fill="#b31605" stroke="#b31605" stroke-width="1.51"/><path d="M1195,475L1169,597L1278,524Z" fill="#8b0d07" stroke="#8b0d07" stroke-width="1.51"/><path d="M1164,-135L1211,-75L1269,-156Z" fill="#290812" stroke="#290812" stroke-width="1.51"/><path d="M1263,366L1195,475L1273,428Z" fill="#800c07" stroke="#800c07" stroke-width="1.51"/><path d="M1141,306L1195,475L1263,366Z" fill="#790c09" stroke="#790c09" stroke-width="1.51"/><path d="M1083,1146L1007,1143L1164,1184Z" fill="#b71304" stroke="#b71304" stroke-width="1.51"/><path d="M1126,1008L1083,1146L1164,1184Z" fill="#b71404" stroke="#b71404" stroke-width="1.51"/><path d="M1141,306L1059,380L1195,475Z" fill="#780a08" stroke="#780a08" stroke-width="1.51"/><path d="M1109,551L1169,597L1195,475Z" fill="#8b0b06" stroke="#8b0b06" stroke-width="1.51"/><path d="M1169,597L1020,664L1197,619Z" fill="#920b06" stroke="#920b06" stroke-width="1.51"/><path d="M1020,664L1163,784L1197,619Z" fill="#970d06" stroke="#970d06" stroke-width="1.51"/><path d="M1203,47L1117,180L1207,136Z" fill="#510b0e" stroke="#510b0e" stroke-width="1.51"/><path d="M1117,180L1185,251L1207,136Z" fill="#5b0c0d" stroke="#5b0c0d" stroke-width="1.51"/><path d="M1164,-135L1032,-91L1211,-75Z" fill="#2c0911" stroke="#2c0911" stroke-width="1.51"/><path d="M1022,10L1203,47L1211,-75Z" fill="#3c0b11" stroke="#3c0b11" stroke-width="1.51"/><path d="M1032,-91L1022,10L1211,-75Z" fill="#340a10" stroke="#340a10" stroke-width="1.51"/><path d="M1022,10L1117,180L1203,47Z" fill="#4a0c0f" stroke="#4a0c0f" stroke-width="1.51"/><path d="M1020,664L1047,779L1163,784Z" fill="#9a0c06" stroke="#9a0c06" stroke-width="1.51"/><path d="M901,-180L989,-164L1104,-200Z" fill="#1f0313" stroke="#1f0313" stroke-width="1.51"/><path d="M1064,1040L1083,1146L1126,1008Z" fill="#b21204" stroke="#b21204" stroke-width="1.51"/><path d="M1059,380L1025,448L1195,475Z" fill="#7d0806" stroke="#7d0806" stroke-width="1.51"/><path d="M1025,448L1109,551L1195,475Z" fill="#850905" stroke="#850905" stroke-width="1.51"/><path d="M1143,870L1126,1008L1188,959Z" fill="#ad1205" stroke="#ad1205" stroke-width="1.51"/><path d="M1117,180L1141,306L1185,251Z" fill="#640c0c" stroke="#640c0c" stroke-width="1.51"/><path d="M590,-154L735,-139L901,-180Z" fill="#230412" stroke="#230412" stroke-width="1.51"/><path d="M1117,180L1052,233L1141,306Z" fill="#620b0b" stroke="#620b0b" stroke-width="1.51"/><path d="M1027,927L1126,1008L1143,870Z" fill="#aa1005" stroke="#aa1005" stroke-width="1.51"/><path d="M1073,861L1027,927L1143,870Z" fill="#a60f05" stroke="#a60f05" stroke-width="1.51"/><path d="M1073,861L1143,870L1163,784Z" fill="#a41006" stroke="#a41006" stroke-width="1.51"/><path d="M1109,551L1020,664L1169,597Z" fill="#8f0a06" stroke="#8f0a06" stroke-width="1.51"/><path d="M1047,779L1073,861L1163,784Z" fill="#a00e06" stroke="#a00e06" stroke-width="1.51"/><path d="M1104,-200L1032,-91L1164,-135Z" fill="#260612" stroke="#260612" stroke-width="1.51"/><path d="M345,-185L451,-159L590,-154Z" fill="#210412" stroke="#210412" stroke-width="1.51"/><path d="M1020,664L1014,673L1047,779Z" fill="#960905" stroke="#960905" stroke-width="1.51"/><path d="M1016,295L1059,380L1141,306Z" fill="#6e0909" stroke="#6e0909" stroke-width="1.51"/><path d="M1052,233L1016,295L1141,306Z" fill="#670a0a" stroke="#670a0a" stroke-width="1.51"/><path d="M1022,10L923,85L1117,180Z" fill="#4a0a0f" stroke="#4a0a0f" stroke-width="1.51"/><path d="M923,85L922,150L1117,180Z" fill="#520a0e" stroke="#520a0e" stroke-width="1.51"/><path d="M922,150L1052,233L1117,180Z" fill="#590b0c" stroke="#590b0c" stroke-width="1.51"/><path d="M1027,927L1064,1040L1126,1008Z" fill="#ad0f05" stroke="#ad0f05" stroke-width="1.51"/><path d="M989,-164L1032,-91L1104,-200Z" fill="#240612" stroke="#240612" stroke-width="1.51"/><path d="M1025,448L965,532L1109,551Z" fill="#850705" stroke="#850705" stroke-width="1.51"/><path d="M965,532L1020,664L1109,551Z" fill="#8b0705" stroke="#8b0705" stroke-width="1.51"/><path d="M1064,1040L1007,1143L1083,1146Z" fill="#b31004" stroke="#b31004" stroke-width="1.51"/><path d="M721,1177L689,1187L880,1181Z" fill="#aa0606" stroke="#aa0606" stroke-width="1.51"/><path d="M1014,673L976,742L1047,779Z" fill="#970905" stroke="#970905" stroke-width="1.51"/><path d="M1047,779L1002,846L1073,861Z" fill="#a00b06" stroke="#a00b06" stroke-width="1.51"/><path d="M1016,295L1000,373L1059,380Z" fill="#710908" stroke="#710908" stroke-width="1.51"/><path d="M1027,927L954,1067L1064,1040Z" fill="#ab0d04" stroke="#ab0d04" stroke-width="1.51"/><path d="M954,1067L1007,1143L1064,1040Z" fill="#af0d04" stroke="#af0d04" stroke-width="1.51"/><path d="M1002,846L1027,927L1073,861Z" fill="#a30c05" stroke="#a30c05" stroke-width="1.51"/><path d="M1000,373L1025,448L1059,380Z" fill="#780707" stroke="#780707" stroke-width="1.51"/><path d="M920,943L954,1067L1027,927Z" fill="#a80a05" stroke="#a80a05" stroke-width="1.51"/><path d="M943,-60L1022,10L1032,-91Z" fill="#350a10" stroke="#350a10" stroke-width="1.51"/><path d="M922,150L1016,295L1052,233Z" fill="#5e0a0b" stroke="#5e0a0b" stroke-width="1.51"/><path d="M976,742L1002,846L1047,779Z" fill="#9b0906" stroke="#9b0906" stroke-width="1.51"/><path d="M965,532L911,671L1020,664Z" fill="#8d0605" stroke="#8d0605" stroke-width="1.51"/><path d="M1000,373L934,435L1025,448Z" fill="#790707" stroke="#790707" stroke-width="1.51"/><path d="M934,435L965,532L1025,448Z" fill="#800505" stroke="#800505" stroke-width="1.51"/><path d="M1002,846L920,943L1027,927Z" fill="#a30b05" stroke="#a30b05" stroke-width="1.51"/><path d="M989,-164L943,-60L1032,-91Z" fill="#2b0811" stroke="#2b0811" stroke-width="1.51"/><path d="M911,671L1014,673L1020,664Z" fill="#910706" stroke="#910706" stroke-width="1.51"/><path d="M922,150L822,277L1016,295Z" fill="#60090b" stroke="#60090b" stroke-width="1.51"/><path d="M943,-60L923,85L1022,10Z" fill="#3e0b0f" stroke="#3e0b0f" stroke-width="1.51"/><path d="M976,742L896,839L1002,846Z" fill="#9b0906" stroke="#9b0906" stroke-width="1.51"/><path d="M911,671L976,742L1014,673Z" fill="#930706" stroke="#930706" stroke-width="1.51"/><path d="M822,277L868,361L1016,295Z" fill="#6a0809" stroke="#6a0809" stroke-width="1.51"/><path d="M868,361L1000,373L1016,295Z" fill="#6f0808" stroke="#6f0808" stroke-width="1.51"/><path d="M898,957L880,1017L920,943Z" fill="#a50805" stroke="#a50805" stroke-width="1.51"/><path d="M920,943L880,1017L954,1067Z" fill="#a70905" stroke="#a70905" stroke-width="1.51"/><path d="M896,839L920,943L1002,846Z" fill="#a00905" stroke="#a00905" stroke-width="1.51"/><path d="M954,1067L880,1181L1007,1143Z" fill="#af0c04" stroke="#af0c04" stroke-width="1.51"/><path d="M934,435L908,503L965,532Z" fill="#810505" stroke="#810505" stroke-width="1.51"/><path d="M901,-180L943,-60L989,-164Z" fill="#260712" stroke="#260712" stroke-width="1.51"/><path d="M868,361L934,435L1000,373Z" fill="#750706" stroke="#750706" stroke-width="1.51"/><path d="M908,503L812,571L911,671Z" fill="#870505" stroke="#870505" stroke-width="1.51"/><path d="M835,173L822,277L922,150Z" fill="#590a0c" stroke="#590a0c" stroke-width="1.51"/><path d="M908,503L911,671L965,532Z" fill="#870505" stroke="#870505" stroke-width="1.51"/><path d="M911,671L858,767L976,742Z" fill="#940706" stroke="#940706" stroke-width="1.51"/><path d="M858,767L896,839L976,742Z" fill="#980706" stroke="#980706" stroke-width="1.51"/><path d="M790,21L923,85L943,-60Z" fill="#3e0a0f" stroke="#3e0a0f" stroke-width="1.51"/><path d="M838,-76L790,21L943,-60Z" fill="#350910" stroke="#350910" stroke-width="1.51"/><path d="M901,-180L838,-76L943,-60Z" fill="#2a0811" stroke="#2a0811" stroke-width="1.51"/><path d="M880,1017L794,1084L880,1181Z" fill="#aa0805" stroke="#aa0805" stroke-width="1.51"/><path d="M868,361L901,441L934,435Z" fill="#770606" stroke="#770606" stroke-width="1.51"/><path d="M901,441L908,503L934,435Z" fill="#7d0405" stroke="#7d0405" stroke-width="1.51"/><path d="M880,1017L880,1181L954,1067Z" fill="#ac0a05" stroke="#ac0a05" stroke-width="1.51"/><path d="M790,21L825,92L923,85Z" fill="#450a0e" stroke="#450a0e" stroke-width="1.51"/><path d="M896,839L898,957L920,943Z" fill="#a10805" stroke="#a10805" stroke-width="1.51"/><path d="M896,839L782,857L898,957Z" fill="#9e0705" stroke="#9e0705" stroke-width="1.51"/><path d="M812,571L797,658L911,671Z" fill="#8b0506" stroke="#8b0506" stroke-width="1.51"/><path d="M825,92L835,173L922,150Z" fill="#510a0d" stroke="#510a0d" stroke-width="1.51"/><path d="M825,92L922,150L923,85Z" fill="#4c0a0e" stroke="#4c0a0e" stroke-width="1.51"/><path d="M797,658L783,715L858,767Z" fill="#900406" stroke="#900406" stroke-width="1.51"/><path d="M901,441L779,460L908,503Z" fill="#7d0405" stroke="#7d0405" stroke-width="1.51"/><path d="M797,658L858,767L911,671Z" fill="#900505" stroke="#900505" stroke-width="1.51"/><path d="M779,460L812,571L908,503Z" fill="#810405" stroke="#810405" stroke-width="1.51"/><path d="M782,857L736,930L898,957Z" fill="#9e0506" stroke="#9e0506" stroke-width="1.51"/><path d="M868,361L815,373L901,441Z" fill="#740606" stroke="#740606" stroke-width="1.51"/><path d="M815,373L779,460L901,441Z" fill="#770406" stroke="#770406" stroke-width="1.51"/><path d="M735,-139L838,-76L901,-180Z" fill="#270712" stroke="#270712" stroke-width="1.51"/><path d="M736,930L880,1017L898,957Z" fill="#a20606" stroke="#a20606" stroke-width="1.51"/><path d="M858,767L782,857L896,839Z" fill="#990606" stroke="#990606" stroke-width="1.51"/><path d="M802,184L822,277L835,173Z" fill="#5b080c" stroke="#5b080c" stroke-width="1.51"/><path d="M822,277L815,373L868,361Z" fill="#6c0708" stroke="#6c0708" stroke-width="1.51"/><path d="M736,930L794,1084L880,1017Z" fill="#a40505" stroke="#a40505" stroke-width="1.51"/><path d="M794,1084L721,1177L880,1181Z" fill="#ab0705" stroke="#ab0705" stroke-width="1.51"/><path d="M795,289L815,373L822,277Z" fill="#680709" stroke="#680709" stroke-width="1.51"/><path d="M783,715L782,857L858,767Z" fill="#950505" stroke="#950505" stroke-width="1.51"/><path d="M802,184L795,289L822,277Z" fill="#5f080b" stroke="#5f080b" stroke-width="1.51"/><path d="M825,92L802,184L835,173Z" fill="#52090d" stroke="#52090d" stroke-width="1.51"/><path d="M745,-50L790,21L838,-76Z" fill="#350910" stroke="#350910" stroke-width="1.51"/><path d="M735,-139L745,-50L838,-76Z" fill="#2d0911" stroke="#2d0911" stroke-width="1.51"/><path d="M715,124L802,184L825,92Z" fill="#4f090d" stroke="#4f090d" stroke-width="1.51"/><path d="M514,1129L315,1187L689,1187Z" fill="#9c0006" stroke="#9c0006" stroke-width="1.51"/><path d="M681,743L782,857L783,715Z" fill="#930306" stroke="#930306" stroke-width="1.51"/><path d="M779,460L702,493L812,571Z" fill="#7e0305" stroke="#7e0305" stroke-width="1.51"/><path d="M790,21L715,124L825,92Z" fill="#470a0e" stroke="#470a0e" stroke-width="1.51"/><path d="M669,261L795,289L802,184Z" fill="#5f080b" stroke="#5f080b" stroke-width="1.51"/><path d="M657,666L797,658L812,571Z" fill="#890306" stroke="#890306" stroke-width="1.51"/><path d="M795,289L677,378L815,373Z" fill="#6c0608" stroke="#6c0608" stroke-width="1.51"/><path d="M677,378L779,460L815,373Z" fill="#730406" stroke="#730406" stroke-width="1.51"/><path d="M736,930L624,1011L794,1084Z" fill="#a10306" stroke="#a10306" stroke-width="1.51"/><path d="M702,493L657,666L812,571Z" fill="#840205" stroke="#840205" stroke-width="1.51"/><path d="M695,23L715,124L790,21Z" fill="#430a0e" stroke="#430a0e" stroke-width="1.51"/><path d="M715,124L669,261L802,184Z" fill="#56090b" stroke="#56090b" stroke-width="1.51"/><path d="M669,261L677,378L795,289Z" fill="#670709" stroke="#670709" stroke-width="1.51"/><path d="M657,666L783,715L797,658Z" fill="#8d0306" stroke="#8d0306" stroke-width="1.51"/><path d="M624,1011L721,1177L794,1084Z" fill="#a50306" stroke="#a50306" stroke-width="1.51"/><path d="M-96,-131L103,-133L309,-190Z" fill="#230412" stroke="#230412" stroke-width="1.51"/><path d="M635,519L657,666L702,493Z" fill="#810105" stroke="#810105" stroke-width="1.51"/><path d="M681,743L680,893L782,857Z" fill="#960306" stroke="#960306" stroke-width="1.51"/><path d="M745,-50L695,23L790,21Z" fill="#3a0a0f" stroke="#3a0a0f" stroke-width="1.51"/><path d="M677,378L702,493L779,460Z" fill="#780305" stroke="#780305" stroke-width="1.51"/><path d="M680,893L736,930L782,857Z" fill="#9b0306" stroke="#9b0306" stroke-width="1.51"/><path d="M657,666L681,743L783,715Z" fill="#8d0206" stroke="#8d0206" stroke-width="1.51"/><path d="M600,186L669,261L715,124Z" fill="#56090b" stroke="#56090b" stroke-width="1.51"/><path d="M624,1011L689,1187L721,1177Z" fill="#a50206" stroke="#a50206" stroke-width="1.51"/><path d="M590,-154L684,-101L735,-139Z" fill="#270712" stroke="#270712" stroke-width="1.51"/><path d="M654,900L624,1011L736,930Z" fill="#9c0206" stroke="#9c0206" stroke-width="1.51"/><path d="M632,-19L695,23L745,-50Z" fill="#390a10" stroke="#390a10" stroke-width="1.51"/><path d="M684,-101L632,-19L745,-50Z" fill="#320910" stroke="#320910" stroke-width="1.51"/><path d="M735,-139L684,-101L745,-50Z" fill="#2b0911" stroke="#2b0911" stroke-width="1.51"/><path d="M604,772L680,893L681,743Z" fill="#930106" stroke="#930106" stroke-width="1.51"/><path d="M624,1011L559,1124L689,1187Z" fill="#a20006" stroke="#a20006" stroke-width="1.51"/><path d="M680,893L654,900L736,930Z" fill="#9a0206" stroke="#9a0206" stroke-width="1.51"/><path d="M559,1124L514,1129L689,1187Z" fill="#a10006" stroke="#a10006" stroke-width="1.51"/><path d="M695,23L552,89L715,124Z" fill="#460a0e" stroke="#460a0e" stroke-width="1.51"/><path d="M577,830L654,900L680,893Z" fill="#960106" stroke="#960106" stroke-width="1.51"/><path d="M604,772L577,830L680,893Z" fill="#930106" stroke="#930106" stroke-width="1.51"/><path d="M677,378L635,519L702,493Z" fill="#790205" stroke="#790205" stroke-width="1.51"/><path d="M552,89L600,186L715,124Z" fill="#4d080d" stroke="#4d080d" stroke-width="1.51"/><path d="M669,261L577,334L677,378Z" fill="#670509" stroke="#670509" stroke-width="1.51"/><path d="M616,-40L632,-19L684,-101Z" fill="#320910" stroke="#320910" stroke-width="1.51"/><path d="M632,-19L552,89L695,23Z" fill="#3f0a0f" stroke="#3f0a0f" stroke-width="1.51"/><path d="M600,186L592,206L669,261Z" fill="#59070b" stroke="#59070b" stroke-width="1.51"/><path d="M528,425L635,519L677,378Z" fill="#760205" stroke="#760205" stroke-width="1.51"/><path d="M635,519L532,576L657,666Z" fill="#820105" stroke="#820105" stroke-width="1.51"/><path d="M657,666L604,772L681,743Z" fill="#8d0106" stroke="#8d0106" stroke-width="1.51"/><path d="M590,-154L616,-40L684,-101Z" fill="#2b0911" stroke="#2b0911" stroke-width="1.51"/><path d="M577,334L528,425L677,378Z" fill="#6d0407" stroke="#6d0407" stroke-width="1.51"/><path d="M583,1004L624,1011L654,900Z" fill="#9b0006" stroke="#9b0006" stroke-width="1.51"/><path d="M551,964L583,1004L654,900Z" fill="#990006" stroke="#990006" stroke-width="1.51"/><path d="M592,206L577,334L669,261Z" fill="#5f070a" stroke="#5f070a" stroke-width="1.51"/><path d="M583,1004L559,1124L624,1011Z" fill="#9d0006" stroke="#9d0006" stroke-width="1.51"/><path d="M530,680L604,772L657,666Z" fill="#8a0106" stroke="#8a0106" stroke-width="1.51"/><path d="M532,576L530,680L657,666Z" fill="#840106" stroke="#840106" stroke-width="1.51"/><path d="M577,830L551,964L654,900Z" fill="#960106" stroke="#960106" stroke-width="1.51"/><path d="M502,61L552,89L616,-40Z" fill="#3f0a0f" stroke="#3f0a0f" stroke-width="1.51"/><path d="M616,-40L552,89L632,-19Z" fill="#3c0a0f" stroke="#3c0a0f" stroke-width="1.51"/><path d="M498,472L532,576L635,519Z" fill="#7b0105" stroke="#7b0105" stroke-width="1.51"/><path d="M528,425L498,472L635,519Z" fill="#770104" stroke="#770104" stroke-width="1.51"/><path d="M590,-154L454,-94L616,-40Z" fill="#2b0811" stroke="#2b0811" stroke-width="1.51"/><path d="M454,-94L502,61L616,-40Z" fill="#350910" stroke="#350910" stroke-width="1.51"/><path d="M434,234L577,334L592,206Z" fill="#5d0709" stroke="#5d0709" stroke-width="1.51"/><path d="M511,803L577,830L604,772Z" fill="#8e0106" stroke="#8e0106" stroke-width="1.51"/><path d="M530,680L511,803L604,772Z" fill="#8b0106" stroke="#8b0106" stroke-width="1.51"/><path d="M457,930L551,964L577,830Z" fill="#920106" stroke="#920106" stroke-width="1.51"/><path d="M514,1129L559,1124L583,1004Z" fill="#9c0006" stroke="#9c0006" stroke-width="1.51"/><path d="M552,89L446,109L592,206Z" fill="#4c080d" stroke="#4c080d" stroke-width="1.51"/><path d="M552,89L592,206L600,186Z" fill="#50080c" stroke="#50080c" stroke-width="1.51"/><path d="M511,803L457,930L577,830Z" fill="#8f0106" stroke="#8f0106" stroke-width="1.51"/><path d="M445,1061L514,1129L583,1004Z" fill="#990006" stroke="#990006" stroke-width="1.51"/><path d="M451,-159L454,-94L590,-154Z" fill="#250612" stroke="#250612" stroke-width="1.51"/><path d="M446,109L434,234L592,206Z" fill="#52080c" stroke="#52080c" stroke-width="1.51"/><path d="M461,384L528,425L577,334Z" fill="#6b0407" stroke="#6b0407" stroke-width="1.51"/><path d="M434,234L461,384L577,334Z" fill="#640608" stroke="#640608" stroke-width="1.51"/><path d="M551,964L445,1061L583,1004Z" fill="#980006" stroke="#980006" stroke-width="1.51"/><path d="M476,785L511,803L530,680Z" fill="#890105" stroke="#890105" stroke-width="1.51"/><path d="M476,641L530,680L532,576Z" fill="#810106" stroke="#810106" stroke-width="1.51"/><path d="M325,1164L315,1187L514,1129Z" fill="#920106" stroke="#920106" stroke-width="1.51"/><path d="M457,930L445,1061L551,964Z" fill="#930006" stroke="#930006" stroke-width="1.51"/><path d="M502,61L446,109L552,89Z" fill="#46090e" stroke="#46090e" stroke-width="1.51"/><path d="M414,1024L445,1061L457,930Z" fill="#910006" stroke="#910006" stroke-width="1.51"/><path d="M454,-94L376,-42L502,61Z" fill="#350910" stroke="#350910" stroke-width="1.51"/><path d="M476,785L457,930L511,803Z" fill="#8c0106" stroke="#8c0106" stroke-width="1.51"/><path d="M476,641L476,785L530,680Z" fill="#840105" stroke="#840105" stroke-width="1.51"/><path d="M498,472L430,508L532,576Z" fill="#780105" stroke="#780105" stroke-width="1.51"/><path d="M430,508L476,641L532,576Z" fill="#7c0105" stroke="#7c0105" stroke-width="1.51"/><path d="M461,384L498,472L528,425Z" fill="#700205" stroke="#700205" stroke-width="1.51"/><path d="M445,1061L325,1164L514,1129Z" fill="#950106" stroke="#950106" stroke-width="1.51"/><path d="M378,795L457,930L476,785Z" fill="#8a0106" stroke="#8a0106" stroke-width="1.51"/><path d="M378,795L476,785L476,641Z" fill="#850105" stroke="#850105" stroke-width="1.51"/><path d="M461,384L430,508L498,472Z" fill="#720104" stroke="#720104" stroke-width="1.51"/><path d="M375,89L446,109L502,61Z" fill="#45090e" stroke="#45090e" stroke-width="1.51"/><path d="M376,-42L375,89L502,61Z" fill="#3e090f" stroke="#3e090f" stroke-width="1.51"/><path d="M430,508L350,603L476,641Z" fill="#7a0105" stroke="#7a0105" stroke-width="1.51"/><path d="M391,221L434,234L446,109Z" fill="#52080b" stroke="#52080b" stroke-width="1.51"/><path d="M378,795L323,888L457,930Z" fill="#890106" stroke="#890106" stroke-width="1.51"/><path d="M348,424L430,508L461,384Z" fill="#6f0205" stroke="#6f0205" stroke-width="1.51"/><path d="M434,234L334,373L461,384Z" fill="#620507" stroke="#620507" stroke-width="1.51"/><path d="M350,603L378,795L476,641Z" fill="#7f0105" stroke="#7f0105" stroke-width="1.51"/><path d="M103,-133L166,-136L309,-190Z" fill="#220512" stroke="#220512" stroke-width="1.51"/><path d="M130,1119L-96,1177L315,1187Z" fill="#7b0509" stroke="#7b0509" stroke-width="1.51"/><path d="M391,221L334,373L434,234Z" fill="#5b0609" stroke="#5b0609" stroke-width="1.51"/><path d="M375,89L383,101L446,109Z" fill="#46080d" stroke="#46080d" stroke-width="1.51"/><path d="M383,101L391,221L446,109Z" fill="#4b080c" stroke="#4b080c" stroke-width="1.51"/><path d="M325,992L414,1024L457,930Z" fill="#8e0006" stroke="#8e0006" stroke-width="1.51"/><path d="M334,373L348,424L461,384Z" fill="#690405" stroke="#690405" stroke-width="1.51"/><path d="M350,603L281,752L378,795Z" fill="#7e0105" stroke="#7e0105" stroke-width="1.51"/><path d="M451,-159L345,-185L454,-94Z" fill="#240512" stroke="#240512" stroke-width="1.51"/><path d="M345,-185L376,-42L454,-94Z" fill="#290711" stroke="#290711" stroke-width="1.51"/><path d="M316,899L325,992L457,930Z" fill="#8a0006" stroke="#8a0006" stroke-width="1.51"/><path d="M323,888L316,899L457,930Z" fill="#890106" stroke="#890106" stroke-width="1.51"/><path d="M329,540L350,603L430,508Z" fill="#760104" stroke="#760104" stroke-width="1.51"/><path d="M414,1024L325,1164L445,1061Z" fill="#910106" stroke="#910106" stroke-width="1.51"/><path d="M305,1033L325,1164L414,1024Z" fill="#8e0106" stroke="#8e0106" stroke-width="1.51"/><path d="M270,303L334,373L391,221Z" fill="#5d0508" stroke="#5d0508" stroke-width="1.51"/><path d="M348,424L329,540L430,508Z" fill="#720104" stroke="#720104" stroke-width="1.51"/><path d="M317,-28L375,89L376,-42Z" fill="#39090f" stroke="#39090f" stroke-width="1.51"/><path d="M269,274L270,303L391,221Z" fill="#580608" stroke="#580608" stroke-width="1.51"/><path d="M383,101L270,121L391,221Z" fill="#4b080b" stroke="#4b080b" stroke-width="1.51"/><path d="M325,992L305,1033L414,1024Z" fill="#8c0106" stroke="#8c0106" stroke-width="1.51"/><path d="M309,-190L317,-28L345,-185Z" fill="#250612" stroke="#250612" stroke-width="1.51"/><path d="M317,-28L277,32L375,89Z" fill="#3c090e" stroke="#3c090e" stroke-width="1.51"/><path d="M345,-185L317,-28L376,-42Z" fill="#2c0811" stroke="#2c0811" stroke-width="1.51"/><path d="M270,121L269,274L391,221Z" fill="#52080a" stroke="#52080a" stroke-width="1.51"/><path d="M242,608L281,752L350,603Z" fill="#780105" stroke="#780105" stroke-width="1.51"/><path d="M375,89L270,121L383,101Z" fill="#46080c" stroke="#46080c" stroke-width="1.51"/><path d="M256,477L329,540L348,424Z" fill="#6f0103" stroke="#6f0103" stroke-width="1.51"/><path d="M281,752L323,888L378,795Z" fill="#830106" stroke="#830106" stroke-width="1.51"/><path d="M277,32L270,121L375,89Z" fill="#42090d" stroke="#42090d" stroke-width="1.51"/><path d="M309,-190L166,-136L317,-28Z" fill="#270712" stroke="#270712" stroke-width="1.51"/><path d="M281,752L209,812L323,888Z" fill="#7f0105" stroke="#7f0105" stroke-width="1.51"/><path d="M316,899L288,996L325,992Z" fill="#870105" stroke="#870105" stroke-width="1.51"/><path d="M329,540L242,569L350,603Z" fill="#750104" stroke="#750104" stroke-width="1.51"/><path d="M242,569L242,608L350,603Z" fill="#740104" stroke="#740104" stroke-width="1.51"/><path d="M334,373L256,477L348,424Z" fill="#6a0204" stroke="#6a0204" stroke-width="1.51"/><path d="M305,1033L147,1093L325,1164Z" fill="#890106" stroke="#890106" stroke-width="1.51"/><path d="M270,303L201,346L334,373Z" fill="#600406" stroke="#600406" stroke-width="1.51"/><path d="M201,346L256,477L334,373Z" fill="#660305" stroke="#660305" stroke-width="1.51"/><path d="M166,-136L148,-98L317,-28Z" fill="#2b0811" stroke="#2b0811" stroke-width="1.51"/><path d="M209,812L316,899L323,888Z" fill="#820105" stroke="#820105" stroke-width="1.51"/><path d="M288,996L305,1033L325,992Z" fill="#890105" stroke="#890105" stroke-width="1.51"/><path d="M256,477L242,569L329,540Z" fill="#710104" stroke="#710104" stroke-width="1.51"/><path d="M147,1093L315,1187L325,1164Z" fill="#8a0106" stroke="#8a0106" stroke-width="1.51"/><path d="M173,936L288,996L316,899Z" fill="#840106" stroke="#840106" stroke-width="1.51"/><path d="M187,265L269,274L270,121Z" fill="#52060a" stroke="#52060a" stroke-width="1.51"/><path d="M166,151L187,265L270,121Z" fill="#4d080b" stroke="#4d080b" stroke-width="1.51"/><path d="M242,608L167,702L281,752Z" fill="#780104" stroke="#780104" stroke-width="1.51"/><path d="M147,1093L130,1119L315,1187Z" fill="#840106" stroke="#840106" stroke-width="1.51"/><path d="M148,-98L277,32L317,-28Z" fill="#330810" stroke="#330810" stroke-width="1.51"/><path d="M209,812L173,936L316,899Z" fill="#800105" stroke="#800105" stroke-width="1.51"/><path d="M-96,-131L-45,-119L103,-133Z" fill="#250512" stroke="#250512" stroke-width="1.51"/><path d="M288,996L147,1093L305,1033Z" fill="#860105" stroke="#860105" stroke-width="1.51"/><path d="M201,346L177,453L256,477Z" fill="#670204" stroke="#670204" stroke-width="1.51"/><path d="M155,63L270,121L277,32Z" fill="#40090d" stroke="#40090d" stroke-width="1.51"/><path d="M148,-98L155,63L277,32Z" fill="#36090e" stroke="#36090e" stroke-width="1.51"/><path d="M173,936L147,1093L288,996Z" fill="#820106" stroke="#820106" stroke-width="1.51"/><path d="M20,1113L-96,1177L130,1119Z" fill="#71080c" stroke="#71080c" stroke-width="1.51"/><path d="M167,702L209,812L281,752Z" fill="#7a0104" stroke="#7a0104" stroke-width="1.51"/><path d="M269,274L187,265L270,303Z" fill="#590508" stroke="#590508" stroke-width="1.51"/><path d="M187,265L201,346L270,303Z" fill="#5b0507" stroke="#5b0507" stroke-width="1.51"/><path d="M155,63L166,151L270,121Z" fill="#44080c" stroke="#44080c" stroke-width="1.51"/><path d="M177,453L156,569L242,569Z" fill="#6d0204" stroke="#6d0204" stroke-width="1.51"/><path d="M156,628L167,702L242,608Z" fill="#730205" stroke="#730205" stroke-width="1.51"/><path d="M177,453L242,569L256,477Z" fill="#6d0103" stroke="#6d0103" stroke-width="1.51"/><path d="M242,569L156,569L242,608Z" fill="#720104" stroke="#720104" stroke-width="1.51"/><path d="M156,569L156,628L242,608Z" fill="#710204" stroke="#710204" stroke-width="1.51"/><path d="M148,-98L62,13L155,63Z" fill="#340910" stroke="#340910" stroke-width="1.51"/><path d="M86,985L147,1093L173,936Z" fill="#7b0308" stroke="#7b0308" stroke-width="1.51"/><path d="M89,328L66,426L177,453Z" fill="#600406" stroke="#600406" stroke-width="1.51"/><path d="M187,265L89,328L201,346Z" fill="#590608" stroke="#590608" stroke-width="1.51"/><path d="M89,328L177,453L201,346Z" fill="#600406" stroke="#600406" stroke-width="1.51"/><path d="M167,702L38,719L209,812Z" fill="#740306" stroke="#740306" stroke-width="1.51"/><path d="M38,719L18,830L209,812Z" fill="#710508" stroke="#710508" stroke-width="1.51"/><path d="M18,830L173,936L209,812Z" fill="#770308" stroke="#770308" stroke-width="1.51"/><path d="M54,145L28,260L166,151Z" fill="#49080b" stroke="#49080b" stroke-width="1.51"/><path d="M65,559L156,569L177,453Z" fill="#6a0205" stroke="#6a0205" stroke-width="1.51"/><path d="M66,426L65,559L177,453Z" fill="#660305" stroke="#660305" stroke-width="1.51"/><path d="M166,151L28,260L187,265Z" fill="#4f070a" stroke="#4f070a" stroke-width="1.51"/><path d="M28,260L89,328L187,265Z" fill="#540609" stroke="#540609" stroke-width="1.51"/><path d="M155,63L54,145L166,151Z" fill="#44080c" stroke="#44080c" stroke-width="1.51"/><path d="M18,830L86,985L173,936Z" fill="#750509" stroke="#750509" stroke-width="1.51"/><path d="M156,628L76,613L167,702Z" fill="#6f0306" stroke="#6f0306" stroke-width="1.51"/><path d="M103,-133L148,-98L166,-136Z" fill="#260612" stroke="#260612" stroke-width="1.51"/><path d="M76,613L38,719L167,702Z" fill="#6d0407" stroke="#6d0407" stroke-width="1.51"/><path d="M156,569L76,613L156,628Z" fill="#6d0305" stroke="#6d0305" stroke-width="1.51"/><path d="M86,985L36,1092L147,1093Z" fill="#78060a" stroke="#78060a" stroke-width="1.51"/><path d="M103,-133L62,13L148,-98Z" fill="#2c0711" stroke="#2c0711" stroke-width="1.51"/><path d="M62,13L54,145L155,63Z" fill="#3d090e" stroke="#3d090e" stroke-width="1.51"/><path d="M65,559L76,613L156,569Z" fill="#6a0306" stroke="#6a0306" stroke-width="1.51"/><path d="M23,-9L62,13L103,-133Z" fill="#2f0810" stroke="#2f0810" stroke-width="1.51"/><path d="M36,1092L130,1119L147,1093Z" fill="#790509" stroke="#790509" stroke-width="1.51"/><path d="M17,682L38,719L76,613Z" fill="#6a0508" stroke="#6a0508" stroke-width="1.51"/><path d="M36,1092L20,1113L130,1119Z" fill="#75070b" stroke="#75070b" stroke-width="1.51"/><path d="M18,830L-38,980L86,985Z" fill="#6f070b" stroke="#6f070b" stroke-width="1.51"/><path d="M-45,-119L23,-9L103,-133Z" fill="#290711" stroke="#290711" stroke-width="1.51"/><path d="M-42,74L54,145L62,13Z" fill="#3c090e" stroke="#3c090e" stroke-width="1.51"/><path d="M-31,427L65,559L66,426Z" fill="#610406" stroke="#610406" stroke-width="1.51"/><path d="M-30,1013L36,1092L86,985Z" fill="#71070b" stroke="#71070b" stroke-width="1.51"/><path d="M28,260L-64,367L89,328Z" fill="#540709" stroke="#540709" stroke-width="1.51"/><path d="M-31,427L66,426L89,328Z" fill="#5c0507" stroke="#5c0507" stroke-width="1.51"/><path d="M-64,367L-31,427L89,328Z" fill="#590508" stroke="#590508" stroke-width="1.51"/><path d="M-38,980L-30,1013L86,985Z" fill="#6f070b" stroke="#6f070b" stroke-width="1.51"/><path d="M-45,-119L-57,-87L23,-9Z" fill="#2b0811" stroke="#2b0811" stroke-width="1.51"/><path d="M-31,427L-43,590L65,559Z" fill="#620407" stroke="#620407" stroke-width="1.51"/><path d="M65,559L-43,590L76,613Z" fill="#660407" stroke="#660407" stroke-width="1.51"/><path d="M-43,590L17,682L76,613Z" fill="#670508" stroke="#670508" stroke-width="1.51"/><path d="M-94,910L-38,980L18,830Z" fill="#6a080c" stroke="#6a080c" stroke-width="1.51"/><path d="M-62,237L28,260L54,145Z" fill="#4a070b" stroke="#4a070b" stroke-width="1.51"/><path d="M23,-9L-42,74L62,13Z" fill="#36090f" stroke="#36090f" stroke-width="1.51"/><path d="M-75,148L-62,237L54,145Z" fill="#45080c" stroke="#45080c" stroke-width="1.51"/><path d="M-30,1013L-13,1101L36,1092Z" fill="#6f080c" stroke="#6f080c" stroke-width="1.51"/><path d="M-76,787L18,830L38,719Z" fill="#6a060a" stroke="#6a060a" stroke-width="1.51"/><path d="M-42,74L-75,148L54,145Z" fill="#40080d" stroke="#40080d" stroke-width="1.51"/><path d="M-78,831L-94,910L18,830Z" fill="#67080c" stroke="#67080c" stroke-width="1.51"/><path d="M-13,1101L-96,1177L20,1113Z" fill="#6c0a0d" stroke="#6c0a0d" stroke-width="1.51"/><path d="M-62,237L-64,367L28,260Z" fill="#50070a" stroke="#50070a" stroke-width="1.51"/><path d="M17,682L-76,787L38,719Z" fill="#680609" stroke="#680609" stroke-width="1.51"/><path d="M-13,1101L20,1113L36,1092Z" fill="#70080c" stroke="#70080c" stroke-width="1.51"/><path d="M-124,730L-76,787L17,682Z" fill="#64070a" stroke="#64070a" stroke-width="1.51"/><path d="M-130,26L-42,74L23,-9Z" fill="#36090f" stroke="#36090f" stroke-width="1.51"/><path d="M-57,-87L-130,26L23,-9Z" fill="#300810" stroke="#300810" stroke-width="1.51"/><path d="M-76,787L-78,831L18,830Z" fill="#68080b" stroke="#68080b" stroke-width="1.51"/><path d="M-94,351L-64,367L-62,237Z" fill="#51070a" stroke="#51070a" stroke-width="1.51"/><path d="M-43,590L-124,730L17,682Z" fill="#640709" stroke="#640709" stroke-width="1.51"/><path d="M-126,271L-94,351L-62,237Z" fill="#4d070b" stroke="#4d070b" stroke-width="1.51"/><path d="M-166,646L-124,730L-43,590Z" fill="#60070b" stroke="#60070b" stroke-width="1.51"/><path d="M-154,545L-43,590L-31,427Z" fill="#5e0508" stroke="#5e0508" stroke-width="1.51"/><path d="M-92,415L-154,545L-31,427Z" fill="#5b0507" stroke="#5b0507" stroke-width="1.51"/><path d="M-30,1013L-121,1094L-13,1101Z" fill="#690a0d" stroke="#690a0d" stroke-width="1.51"/><path d="M-121,1094L-96,1177L-13,1101Z" fill="#660a0e" stroke="#660a0e" stroke-width="1.51"/><path d="M-154,-7L-130,26L-57,-87Z" fill="#2f0810" stroke="#2f0810" stroke-width="1.51"/><path d="M-64,367L-92,415L-31,427Z" fill="#580608" stroke="#580608" stroke-width="1.51"/><path d="M-38,980L-121,1094L-30,1013Z" fill="#680a0d" stroke="#680a0d" stroke-width="1.51"/><path d="M-94,910L-121,1094L-38,980Z" fill="#66090d" stroke="#66090d" stroke-width="1.51"/><path d="M-168,111L-75,148L-42,74Z" fill="#3e080d" stroke="#3e080d" stroke-width="1.51"/><path d="M-130,26L-168,111L-42,74Z" fill="#39090e" stroke="#39090e" stroke-width="1.51"/><path d="M-154,545L-166,646L-43,590Z" fill="#5d0709" stroke="#5d0709" stroke-width="1.51"/><path d="M-96,-131L-57,-87L-45,-119Z" fill="#260611" stroke="#260611" stroke-width="1.51"/><path d="M-75,148L-126,271L-62,237Z" fill="#47080c" stroke="#47080c" stroke-width="1.51"/><path d="M-96,-131L-154,-7L-57,-87Z" fill="#2a0711" stroke="#2a0711" stroke-width="1.51"/><path d="M-100,818L-78,831L-76,787Z" fill="#64080c" stroke="#64080c" stroke-width="1.51"/><path d="M-94,351L-92,415L-64,367Z" fill="#550609" stroke="#550609" stroke-width="1.51"/><path d="M-168,111L-126,271L-75,148Z" fill="#42080d" stroke="#42080d" stroke-width="1.51"/><path d="M-100,818L-94,910L-78,831Z" fill="#64080c" stroke="#64080c" stroke-width="1.51"/><path d="M-124,730L-100,818L-76,787Z" fill="#63080c" stroke="#63080c" stroke-width="1.51"/><path d="M-94,351L-126,271L-92,415Z" fill="#51070a" stroke="#51070a" stroke-width="1.51"/><path d="M-126,271L-154,545L-92,415Z" fill="#550609" stroke="#550609" stroke-width="1.51"/><path d="M-166,646L-121,1094L-94,910Z" fill="#62090d" stroke="#62090d" stroke-width="1.51"/><path d="M-100,818L-124,730L-94,910Z" fill="#62080d" stroke="#62080d" stroke-width="1.51"/><path d="M-124,730L-166,646L-94,910Z" fill="#60080c" stroke="#60080c" stroke-width="1.51"/><path d="M-168,111L-154,545L-126,271Z" fill="#4d080b" stroke="#4d080b" stroke-width="1.51"/><path d="M-154,-7L-168,111L-130,26Z" fill="#35090f" stroke="#35090f" stroke-width="1.51"/><path d="M-168,111L-166,646L-154,545Z" fill="#550608" stroke="#550608" stroke-width="1.51"/><g xmlns="http://www.w3.org/1999/xhtml" transform="translate(0,3000)"></g><g xmlns="http://www.w3.org/1999/xhtml" transform="scale(-1,-1)"></g></svg>